<?xml version="1.0" encoding="utf-8"?>
<!-- Generator: Adobe Illustrator 23.0.1, SVG Export Plug-In . SVG Version: 6.00 Build 0)  -->
<svg version="1.1" xmlns="http://www.w3.org/2000/svg" xmlns:xlink="http://www.w3.org/1999/xlink" x="0px" y="0px"
	 viewBox="0 0 894.07 553.56" style="enable-background:new 0 0 894.07 553.56;" xml:space="preserve">
<style type="text/css">
	.st0{fill:#ED1B33;}
	.st1{fill:#EC1F35;}
	.st2{fill:#ED136A;}
	.st3{fill:#80777C;}
	.st4{fill:#E81E25;}
	.st5{fill:#ED3093;}
	.st6{fill:#FFFFFF;}
	.st7{fill:none;stroke:#000000;stroke-width:2;stroke-miterlimit:10;}
	.st8{fill:#FDFDFE;}
	.st9{fill:#F9F9FA;}
</style>
<g id="background">
	<g>
		<g>
			<path class="st0" d="M597.7,547.22c8.59-6.93,17.22-13.83,25.88-20.68c3.82-3.02,7.66-6.04,11.5-9.04
				c2.16-1.68,4.31-3.37,6.47-5.04c0.96-0.74,1.92-1.49,2.88-2.23c1.28-0.99,0.96-0.74-0.95,0.74c0.72-0.56,1.44-1.11,2.16-1.67
				c16.79-12.91,33.75-25.6,50.94-37.97c35.28-25.38,71.47-49.66,109-71.59c10.85-6.34,21.5-12.99,32.2-19.57
				c5.08-3.13,10.17-6.24,15.3-9.3c2.76-1.65,5.54-3.28,8.32-4.89c0.43-0.25,4.22-2.51,4.27-2.45c-0.04-0.06-6.12,2.24-1.92,0.99
				c-8.47-11.02-16.94-22.03-25.41-33.05c-1.06,1.56-5.89,7.03-0.67,1.23c-2.96,3.29,3.39-2.06,2.67-1.72
				c3.79-1.02,7.57-2.05,11.36-3.07c-0.05,0-0.09-0.01-0.14-0.01c6.48,3.71,12.95,7.43,19.43,11.14c-0.02-0.04-0.05-0.07-0.07-0.11
				c1.02,3.79,2.05,7.57,3.07,11.36c0.01,3.63-0.9,7-2.71,10.13c0.08-0.15,0.16-0.3,0.23-0.46c0.51-0.94,2.4-3.41-0.35,0.14
				c-2.75,3.55-0.87,1.11-0.07,0.39c1.43-1.29-5.76,3.55-1.96,1.76c-10.26-10.26-20.52-20.52-30.78-30.78
				c-0.49,0.71-0.97,1.43-1.47,2.14c-0.49,0.69-2.92,3.17-0.8,1.19c1.99-1.86-1.43,1.74-2.01,2.42c-2.59,3.07-5.31,6.02-8.12,8.88
				c-5.43,5.53-11.19,10.72-17,15.84c-12.88,11.35-25.65,22.81-38.29,34.43c-25.19,23.17-49.79,47.3-76.41,68.84
				c-15.63,12.64-30.4,25.12-42.41,41.4c-4.64,6.28-3.73,16.34,0,22.71c4.04,6.9,11.47,11.06,19.43,11.14
				c20.33,0.21,39.1-7.45,56.96-16.42c16.39-8.24,32.67-16.9,48.82-25.59c15.43-8.31,30.3-17.6,45.83-25.72
				c3.63-1.9,7.29-3.74,10.98-5.51c1.85-0.89,3.7-1.75,5.57-2.6c1.07-0.48,2.14-0.95,3.21-1.43c2.39-1.07,0.98-0.67-0.51,0.19
				c3.46-2.01,7.85-3.13,11.62-4.45c2.25-0.79,4.62-1.4,6.84-2.28c1.05-0.41,3.16-0.32,0.25-0.42c-3.62-0.13,0.64,0.01,1.25-0.06
				c2.48-0.28,5.3,1.6-3.97-2.21c-4.57-1.88-7.24-2.94-8.52-7.79c0.11,0.41-0.81-5.5-0.4-3c0.6,3.74-0.59-0.29,0.37-1.67
				c-1.58,2.26-1.63,7.44-2.35,10.13c-2.6,9.76-6.16,19.18-8,29.15c-2.13,11.54,3.17,24.82,15.71,27.68
				c11.04,2.51,25.39-3.34,27.68-15.71c1.73-9.36,4.87-18.3,7.5-27.42c2.77-9.59,5.31-20,3.14-29.94
				c-3.31-15.15-17.46-24.77-32.55-24.13c-10.6,0.45-20.8,4.73-30.53,8.73c-18.75,7.72-36.52,17.13-54.08,27.24
				c-17.33,9.98-35,19.13-52.69,28.45c-9.42,4.96-18.73,9.94-28.36,14.49c-2.98,1.41,3.52-1.3,0.42-0.18
				c-1.4,0.5-2.78,1.09-4.18,1.58c-2.52,0.89-5.07,1.7-7.65,2.38c-2.43,0.64-5.26,1.57-7.78,1.63c0.73-0.02,4.96-0.3,0.73-0.23
				c-1.77,0.03-3.53,0.13-5.3,0.11c6.48,11.29,12.95,22.57,19.43,33.86c0.39-0.53,1.51-2.8,0.33-0.47c-1.29,2.54,0.39-0.4,0.97-1.07
				c1.12-1.31,2.28-2.6,3.45-3.86c2.87-3.07,5.89-6,8.99-8.83c6.05-5.51,12.43-10.64,18.8-15.78c13.15-10.6,25.68-21.85,38.12-33.26
				c25.52-23.43,50.78-47.17,76.83-70.02c14.49-12.7,28.1-25.84,39.01-41.85c5.37-7.88,3.43-20.88-3.52-27.27
				c-7.84-7.2-17.83-7.98-27.27-3.52c-10.56,4.99-18.57,18.39-17.02,29.89c2.17,16.12,19.84,23.98,33.88,16.45
				c6.11-3.28,10.18-10.03,13.93-15.56c5.03-7.41,3.39-18.32-1.76-24.99c-5.39-6.97-14.95-10.64-23.65-8.06
				c-10.83,3.2-20.73,10.41-30.33,16.26c-9.58,5.85-19.09,11.82-28.71,17.62c-19.39,11.7-38.81,23.22-57.8,35.58
				c-36.67,23.87-72.23,49.4-106.97,75.98c-20.92,16-41.6,32.3-62.1,48.84c-9.2,7.42-8.3,24.2,0,31.82
				C575.65,556.19,587.89,555.14,597.7,547.22L597.7,547.22z"/>
		</g>
	</g>
	<g>
		<g>
			<path class="st0" d="M146.71,38.4c-24.51,22.95-46.03,48.73-67.78,74.24c-22.21,26.06-46.3,51.25-63.22,81.26
				c-5.54,9.82-3.08,22.17,5.8,29.03c8.78,6.78,21.55,6.22,29.54-1.76c26.47-26.43,49.19-56.2,74.17-83.97
				c11.43-12.7,23.42-24.95,35.02-37.51c5.7-6.18,11.5-12.29,17.59-18.09c3.05-2.9,6.16-5.73,9.38-8.44
				c1.71-1.45,3.43-2.93,5.23-4.26c-4.81,3.55,1.37-0.89,2.26-1.52c-10.26-10.26-20.52-20.52-30.78-30.78
				c2.73-3.55,0.21-0.29-0.37,0.45c-0.78,0.99-1.57,1.98-2.37,2.96c-1.23,1.51-2.46,3-3.74,4.46c-0.76,0.86-1.54,1.68-2.32,2.52
				c-0.28,0.31-0.63,0.56-0.9,0.87c2.39-2.74,10.17-6.36,14.8-5.9c5.3,2.2,10.61,4.39,15.91,6.59c-0.02-0.02-0.04-0.04-0.05-0.05
				c1.93,3.31,3.86,6.62,5.79,9.93c1.54,5.93,0.86,11.41-2.02,16.45c0.1-0.21,0.21-0.41,0.32-0.6c0.36-0.48,0.65-1.06,0.98-1.56
				c0.44-0.66,0.97-1.26,1.38-1.93c-4.06,6.48-2.97,3.69-1.55,2.09c1.31-1.48,2.59-2.96,3.99-4.35c0.77-0.76,1.59-1.48,2.39-2.22
				c3.61-3.36-4.2,3.04-1.44,1.07c-10.26-10.26-20.52-20.52-30.78-30.78c3.31-4.3-1.59,1.96-2.18,2.7
				c-1.16,1.44-2.32,2.86-3.49,4.28c-2.54,3.08-5.12,6.12-7.74,9.13c-5.43,6.26-10.99,12.39-16.63,18.46
				C123.02,82.85,111.9,94.3,101,105.94c-21.12,22.56-39.76,48.29-64.18,67.48c11.78,9.09,23.56,18.18,35.34,27.27
				c2.03-2.92,4.08-5.81,6.2-8.66c0.7-0.95,1.42-1.89,2.13-2.84c0.26-0.35,2.1-2.71,0.4-0.53c-1.7,2.17,0.15-0.18,0.42-0.52
				c0.74-0.92,1.47-1.85,2.21-2.77c4.82-5.97,9.83-11.79,14.99-17.47c10.32-11.36,21.23-22.18,32.46-32.64
				c23.66-22.04,48.57-42.71,73.92-62.76c3.77-2.98,7.55-5.95,11.33-8.9c1.77-1.38,3.54-2.76,5.31-4.13
				c1.09-0.85,5.62-4.33,2.29-1.77c3.56-2.73,7.11-5.47,10.67-8.19c1.87-1.43,3.71-2.93,5.67-4.24c0.65-0.43,1.48-0.8,2.07-1.29
				c1.92-1.58-4.63,1.37-0.15,0.18c-9.23-9.23-18.45-18.45-27.68-27.68c-0.34,1.86-0.75,3.7-1.32,5.51
				c-0.13,0.41-0.91,1.91-0.8,2.29c-0.27-0.96,2.54-4.18,0.17-1c-2.62,3.52-5.01,7.24-7.56,10.82
				c-5.06,7.11-10.23,14.14-15.47,21.12c-2.61,3.48-5.24,6.94-7.88,10.4c-1.13,1.48-2.27,2.96-3.41,4.44
				c-0.76,0.99-1.51,1.97-2.28,2.96c1.24-1.59,1.46-1.89,0.09-0.12c-5.38,6.93-10.77,13.85-16.15,20.77
				c-11.85,15.23-23.89,30.4-35.11,46.1c-10.29,14.39-21.13,28.45-30.63,43.39c-10.36,16.29-19.84,33.1-28.71,50.24
				c-4.46,8.6-4.04,20.32,3.52,27.27c7.07,6.49,18.79,9.21,27.27,3.52c10.6-7.11,15.15-16.83,13.19-29.55
				c-1.19-7.74-8.84-13.48-15.71-15.71c-12.15-3.95-23.05,4.26-28.26,14.48c-4.41,8.64-4.08,20.29,3.52,27.27
				c7.18,6.59,18.64,9.04,27.27,3.52c8.81-5.64,16.46-12.71,22.2-21.45c0.63-0.95,1.27-1.9,1.88-2.87c0.32-0.5,2.05-2.48,0.27-0.51
				c-2.01,2.23,0.64-0.49,1.13-1.03c0.59-0.65,1.17-1.31,1.75-1.98c2.86-3.3,5.55-6.74,8.33-10.1
				c11.25-13.62,22.55-27.22,33.76-40.89c22.03-26.87,44.54-53.34,67.61-79.33c6.58-7.41,13.2-14.78,19.86-22.11
				c3.37-3.7,6.74-7.4,10.13-11.08c1.71-1.85,3.41-3.71,5.12-5.56c0.64-0.7,1.29-1.39,1.93-2.09c5.8-6.25,1.35,0.92-9.52,1.46
				c-6.48-11.29-12.95-22.57-19.43-33.86c-0.75,0.99-1.5,1.97-2.24,2.95c-3.3,4.36,1.91-2.41,0.26-0.32
				c-1.03,1.3-2.04,2.61-3.08,3.9c-2.44,2.99-5.83,4.51,1.56-0.15c3.79-1.02,7.57-2.05,11.36-3.07c-0.02,0-0.04,0-0.05,0.01
				c7.23,5.51,14.46,11.01,21.7,16.52c-0.01-0.01-0.01-0.03-0.02-0.04c0,3.99,0,7.98,0,11.96c0.05-0.23-3.5,6.26-1.75,4.35
				c0.36-0.39,0.62-0.97,0.91-1.41c0.98-1.49,2.13-2.87,3.11-4.35c0.21-0.31-4.12,5.1-1.49,1.96c0.6-0.71,1.17-1.44,1.79-2.13
				c0.46-0.52,1.01-0.99,1.44-1.53c0.54-0.67,2.92-2.35-1.36,0.95c-3.08,2.37-1.17,1.47-6.71,3.46
				c-8.47-11.02-16.94-22.03-25.41-33.05c-0.53,0.69-2.62,3.36,0.02-0.03c-0.59,0.75-1.17,1.5-1.75,2.25
				c-1.36,1.75-2.73,3.5-4.1,5.24c-2.92,3.72-5.86,7.43-8.81,11.14c-5.49,6.88-11.02,13.72-16.59,20.55
				c-11.36,13.92-22.84,27.75-34.29,41.59c-24.2,29.25-47.95,58.76-70.3,89.46c-11.76,16.15-23.1,32.61-33.73,49.53
				c-5.98,9.52-2.76,22.42,5.8,29.03c8.6,6.64,21.79,6.43,29.54-1.76c8.15-8.6,20.89-19.03,20.84-31.9
				c-0.04-10.77-7.13-18.02-16.52-21.7c-16.08-6.3-32.31,14.74-39.66,26.33c-6.02,9.49-2.73,22.44,5.8,29.03
				c8.59,6.64,21.79,6.43,29.54-1.76c25.07-26.5,47.47-55.32,70.84-83.29c23.63-28.28,47.82-56.55,73.35-83.14
				c6.94-7.23,14.08-14.26,21.55-20.94c3.86-3.45,7.88-6.69,11.84-10.02c1.95-1.64-0.76,0.55-0.96,0.71
				c1.18-0.95,2.43-1.83,3.65-2.73c2.21-1.61,4.45-3.18,6.71-4.71c-11.29-6.48-22.57-12.95-33.86-19.43
				c0.04,0.29,0.19,4.68,0.28,4.76c0.14-0.95,0.28-1.89,0.42-2.84c-0.21,1.04-0.52,2.06-0.92,3.04c1.93-3.31,3.86-6.62,5.79-9.93
				c-1.79,2.03-4.6,4.68-5.58,7.29c0.23-0.62,3.82-3.89,1.11-1.59c-0.88,0.75-1.42,1.26-2.24,2.19c-3.89,4.38-7.34,9.32-10.46,14.28
				c-2.42,3.86-4.64,7.83-6.98,11.73c-1.19,1.98-2.47,3.9-3.68,5.87c-0.2,0.32-1.68,2.85-0.33,0.67c1.57-2.54-1.39,1.83-1.77,2.31
				c-12.62,16.12-25.34,32.16-37.98,48.26c-25.15,32.02-48.9,65.14-71.25,99.18c-6.01,9.16-11.92,18.38-17.73,27.67
				c-5.94,9.49-14.29,19.78-16.79,30.79c-3.72,16.41,10.56,32.51,27.68,27.68c15.48-4.37,25.47-22.24,16.85-37.11
				c-10.22-17.63-34.86-13.18-42.26,4.06c-3.69,8.61-4.33,17.1,1.76,24.99c5.46,7.07,14.87,10.49,23.65,8.06
				c12.87-3.56,23.15-12.13,32.31-21.5c8.66-8.86,17.2-17.85,25.68-26.89c16.29-17.38,32.34-34.99,48.63-52.37
				c31.82-33.95,63.52-67.88,97.35-99.87c9.02-8.53,18.19-16.91,27.59-25.02c4.81-4.15,9.67-8.23,14.6-12.24
				c2.39-1.94,4.8-3.87,7.22-5.77c0.49-0.38,0.98-0.77,1.47-1.15c1.74-1.35,1.97-1.53,0.69-0.54c-0.87,0.85-1.95,1.24-3.25,1.18
				c-3.63,0.35-4.21,0.48-1.74,0.4c-6.48-11.29-12.95-22.57-19.43-33.86c-3.79,5.72-7.72,11.35-11.77,16.88
				c-1.85,2.52-3.72,5.02-5.61,7.51c-1.13,1.5-2.27,2.99-3.42,4.47c3.13-4.06-1.05,1.33-1.67,2.12
				c-4.07,5.19-8.17,10.35-12.27,15.51c-1.95,2.47-3.91,4.93-5.85,7.41c-1.17,1.49-2.33,2.98-3.49,4.47
				c-0.8,1.02-8.19,10.1-5.14,6.63c2.29-2.6-1.29,1.46-1.42,1.62c-1.07,1.28-2.14,2.56-3.18,3.86c-1.17,1.52-2.35,3.04-3.52,4.55
				c1.42-1.91,1.59-2.23,0.53-0.96c-1.17,1.07-2.16,2.47-3.21,3.66c-5.06,5.78-10.11,11.56-15.15,17.34
				c-9.09,10.43-18.16,20.87-27.2,31.33c-9.14,10.57-18.25,21.17-27.34,31.79c-4.26,4.97-8.62,9.87-12.76,14.93
				c-5.3,6.48-9.35,13.81-14.46,20.44c-16.21,21.06-32.52,42.06-47.85,63.77c-17.17,24.33-32.98,49.61-46.08,76.38
				c-4.98,10.17-3.47,21.86,5.8,29.03c8.08,6.24,22.49,6.98,29.54-1.76c5.94-7.36,12.47-14.86,17.13-23.16
				c2.03-3.62,3.39-7.17,3.94-11.24c1.73-12.89-8.47-26.32-22.22-25.79c-17.46,0.68-27.41,19-34.18,32.92
				c-4.96,10.18-3.49,21.85,5.8,29.03c8.09,6.25,22.48,6.97,29.54-1.76c34.98-43.23,66.48-89.06,100.17-133.26
				c1.92-2.52,3.84-5.03,5.77-7.53c-3.15,4.1,0.72-0.92,1.13-1.45c0.78-1,1.56-2,2.33-2.99c4.29-5.48,8.61-10.93,12.97-16.36
				c8.72-10.85,17.61-21.57,26.67-32.13c17.56-20.46,35.99-40.14,54.64-59.6c10.67-11.13,21.4-22.2,32.07-33.33
				c5.06-5.27,10.12-10.54,15.44-15.55c2.42-2.28,4.9-4.51,7.44-6.67c1.13-0.95,2.25-2.09,3.5-2.88c-4.65,2.96,1.89-1.31,2.72-1.89
				c-11.02-8.47-22.03-16.94-33.05-25.41c-0.33,1.54-0.82,3.02-1.2,4.55c-0.54,2.17,0.42,1.99,0.5-0.94
				c-0.05,1.87-2.96,5.59-3.94,7.13c-0.59,0.93-1.21,1.84-1.84,2.75c-0.14,0.2-3.33,4.64-1.19,1.73c2.12-2.89-1.15,1.39-1.31,1.6
				c-1.03,1.25-2.07,2.49-3.12,3.72c-2.6,3.06-5.09,6.08-7.55,9.26c0.52-0.67,3.13-3.37,0.3-0.58c-1.02,1.01-1.99,2.07-3.02,3.07
				c-4.61,4.49-8.69,9.18-12.78,14.16c-15.45,18.78-30.83,37.62-46.06,56.59c-16.2,20.17-32.18,40.51-47.98,61
				c-15,19.46-30.3,38.86-44.23,59.11c-15.17,22.05-27.82,45.64-38.44,70.19c-2.98,6.88-4.14,12.89-1.13,20.02
				c2.52,5.97,7.86,11.79,14.58,13.03c10.98,2.03,21-1.34,27.14-10.97c3.37-5.29,4.56-11.7,3.73-17.84
				c-1.74-12.96-15.25-23.27-28.45-19c-10.37,3.36-14.29,10.89-18.14,20.13c-2,4.8-0.45,13.12,2.27,17.34
				c3.06,4.75,7.73,9.15,13.45,10.34c18.53,3.84,32.13-8.79,44.19-21.01c10-10.14,19.6-20.68,29.11-31.28
				c18.91-21.06,37.18-42.69,55.68-64.11c36.63-42.41,74.99-83.26,115.46-122.03c11.43-10.96,23.12-21.62,34.99-32.1
				c5.52-4.87,10.74-10.07,16.26-14.94c1.27-1.12,2.72-2.75,4.2-3.58c-1.9,1.44-2.2,1.66-0.9,0.66c1.52-1.17,3.04-2.35,4.55-3.52
				c-5.78,4.42-1.95,1.48-0.65,0.65c0.72-0.48,1.47-0.91,2.25-1.3c-3.6,2.13-7.56,2.64-11.88,1.51
				c-4.48-11.02-8.96-22.03-13.45-33.05c-1.93,3.07-3.93,6.1-6.01,9.07c-1.04,1.48-2.1,2.95-3.18,4.4c-0.49,0.66-3.96,5.63-0.87,1.2
				c-4.1,5.88-9.23,11.25-14,16.6c-10.15,11.37-20.69,22.39-31.05,33.57c-21.25,22.93-42.3,46.05-63.05,69.44
				c-41.69,46.98-82.13,95.22-119.28,145.9c-20.12,27.45-39.06,55.76-55.82,85.4c-5.79,10.25-2.78,25.05,8.07,30.78
				c11.7,6.18,23.35,2.11,30.78-8.07c9.52-13.05,19.23-25.97,29.06-38.8c3.92-5.12-2.74,3.51,1.22-1.58
				c0.99-1.27,1.98-2.55,2.98-3.83c2.19-2.8,4.38-5.6,6.58-8.39c5.2-6.6,10.44-13.16,15.72-19.69
				c19.44-24.04,39.42-47.64,59.85-70.84c41.69-47.37,85.21-93.11,129.77-137.79c25.24-25.3,50.81-50.26,76.59-75.02
				c-10.61-10.61-21.21-21.21-31.82-31.82c-41.82,41.53-82.51,84.25-120.66,129.2c-38.12,44.91-72.88,93-104.82,142.48
				c-8.87,13.74-17.23,27.8-25.91,41.65c-9.44,15.06-20.07,29.26-20.82,47.77c-0.73,17.78,19.45,27.05,33.86,19.43
				c25.97-13.74,44.58-36.66,63.02-58.83c20.93-25.18,43.73-48.89,65.67-73.19C420.1,272.42,466.28,221.87,515,173.79
				c13.12-12.95,26.53-25.6,39.71-38.49c6.59-6.44,13.19-12.88,20.09-18.99c3.21-2.85,6.49-5.6,9.83-8.29
				c0.24-0.19,0.48-0.38,0.72-0.57c1.02-0.8,0.96-0.76-0.18,0.14c-1.36,1.05-1.2,0.95,0.5-0.32c0.47-0.34,0.94-0.67,1.41-1.01
				c1.89-1.34,3.81-2.61,5.76-3.86c-11.02-8.47-22.03-16.94-33.05-25.41c-0.21,0.76-0.5,1.52-0.68,2.28
				c-0.61,2.6,0.59-1.96,0.73-1.74c0.19,0.29-1.69,2.54-1.63,2.69c-0.11-0.29,2.92-3.32,0.94-1.39c-2.81,2.75-5.18,6.1-7.69,9.13
				c-5.43,6.57-11.11,12.92-16.93,19.14c-11.42,12.19-23.1,24.12-34.63,36.21c-23.84,25.02-47.21,50.48-70.58,75.94
				c-23.31,25.39-46.55,50.84-70.08,76.03c-23.13,24.76-46.6,49.22-69.36,74.32c-25.98,28.65-50.88,58.46-72.58,90.52
				c-5.02,7.41-3.4,18.31,1.76,24.99c5.03,6.51,15.37,11.32,23.65,8.06c6.12-2.41,10.86-4.78,15.66-9.36
				c2.99-2.85,5.51-6.18,8.45-9.09c6.68-6.62,13.06-13.49,19.41-20.43c12.92-14.12,26.13-27.93,39.72-41.41
				c27.16-26.91,55.42-52.64,84.27-77.71c59.15-51.4,119.66-101.21,179.7-151.55c33.77-28.31,67.37-56.84,100.4-86.02
				c8.85-7.82,8.58-23.95,0-31.82c-9.88-9.07-21.89-7.78-31.82,0c-53.58,41.96-101.7,90.44-146.47,141.59
				c-46.55,53.18-90.7,108.75-130.83,166.93c-10.9,15.81-21.33,31.93-31.97,47.91c-10.49,15.76-22.59,30.68-31.46,47.45
				c-8.1,15.32,2.01,33.24,19.43,33.86c19.68,0.69,35.17-12.74,48.97-24.97c13.11-11.63,25.87-23.75,38.48-35.92
				c25.65-24.75,49.18-51.56,72.79-78.22c48.27-54.52,99.79-106.09,152.44-156.36c14.5-13.84,29.19-27.47,43.5-41.51
				c6.54-6.42,13.1-12.83,19.9-18.98c3.5-3.17,7.06-6.27,10.72-9.25c0.68-0.56,1.38-1.11,2.06-1.67c4.44-3.61-2.36,1.66,0.34-0.28
				c2.16-1.55,4.29-3.14,6.47-4.66c-9.09-11.78-18.18-23.56-27.27-35.34c-19.49,23.97-43.31,43.67-67.03,63.26
				c-25.26,20.86-49.68,42.64-73.7,64.91c-49.85,46.21-100.19,92.01-149.03,139.29c-13.18,12.76-26.14,25.76-38.82,39.02
				c-6.17,6.46-12.23,13.02-18.55,19.33c-7.79,7.77-15.73,16.46-18.47,27.41c-3.4,13.58,6.71,29.18,21.7,28.48
				c19.76-0.92,37.52-9.11,53.9-19.71c15.07-9.76,29.6-20.41,43.87-31.3c29.57-22.56,57.99-46.53,86.6-70.28
				c7.12-5.92,14.27-11.81,21.45-17.66c1.74-1.42,3.62-2.75,5.26-4.27c2.17-2.01,3.43-5.34,5.69-7.07
				c-0.22,0.17-3.85,3.35-1.36,2.03c0.78-0.41,1.56-1.28,2.24-1.84c2.23-1.83,4.46-3.67,6.69-5.5c13.83-11.38,27.6-22.84,41.36-34.3
				c27.27-22.71,54.51-45.45,82.16-67.69c7.68-6.17,15.38-12.31,23.12-18.39c3.91-3.07,7.83-6.13,11.76-9.18
				c0.71-0.55,3.35-2.63-0.1,0.08c0.99-0.77,1.99-1.53,2.98-2.29c2-1.53,3.99-3.06,5.99-4.59c8.37-6.38,16.78-12.7,25.26-18.94
				c2.09-1.54,4.19-3.05,6.27-4.6c1.8-1.34,3.59-2.69,5.34-4.09c3.33-2.66-2.22,1.36,0.04-0.09c1.78-1.15,3.7-2.19,5.44-3.39
				c1.98-1.36-1.45,0.83-1.79,0.66c0.24,0.11,4.22-1.19,4.6-1.27c-9.23-9.23-18.45-18.45-27.68-27.68c0.74-2.3,3.33-6.3,4.06-6.97
				c-1.47,1.35,5.28-3.5,2.52-2.03c-0.34,0.18,6.04-2.24,3.55-1.55c-1.39,0.3-0.74,0.23,1.93-0.22c6.18-1.3,11.93,0.64,17.27,5.83
				c1.93,3.31,3.86,6.62,5.79,9.93c-0.01-0.08-0.02-0.15-0.03-0.23c0,3.99,0,7.98,0,11.96c-1.06,4.46-3.32,7.89-6.78,10.29
				c-1.99,1.44-2.25,1.72-0.79,0.82c1.11-0.36,5.07-2.08,0.17-0.17c-9.23-9.23-18.45-18.45-27.68-27.68
				c0.23-0.57,2.23-4.59,0.42-1.13c-0.35,0.68-0.68,1.36-1.04,2.04c-0.83,1.56-1.73,3.09-2.68,4.57c-0.66,1.03-2.28,2.57-2.56,3.73
				c0.11-0.43,3.33-4.07,0.75-0.98c-0.65,0.77-1.28,1.55-1.94,2.31c-4.62,5.37-9.73,10.3-14.74,15.3
				c-5.16,5.15-9.78,10.88-15.06,15.87c-6.43,6.07-12.88,12.13-19.33,18.18c-25.69,24.09-51.49,48.07-77.1,72.25
				c-51.45,48.57-103.25,97.63-149.89,150.91c-12.67,14.48-25.01,29.2-36.66,44.52c-12.2,16.04-24.47,32.85-31.19,52.01
				c-5.97,17.01,12.09,31.31,27.68,27.68c7.43-1.73,14.4-4.83,19.15-10.98c8.35-10.81,5.65-26.95-6.32-34.07
				c-12.9-7.67-31.91-1.61-38.24,12c-3.92,8.43-4.18,17.3,1.76,24.99c5.62,7.28,14.71,10.17,23.65,8.06
				c28.36-6.67,49.36-31.13,70.65-49.39c22.46-19.26,45.29-38.1,67.85-57.24c45.66-38.73,91.3-77.51,137.08-116.1
				c12.52-10.55,25.08-21.04,37.83-31.31c6.42-5.17,12.87-10.29,19.39-15.33c-3.58,2.77-0.18,0.15,0.72-0.54
				c1.76-1.35,3.53-2.69,5.3-4.02c3.54-2.67,7.1-5.32,10.67-7.94c-10.26-10.26-20.52-20.52-30.78-30.78
				c-2.5,4.36,3.64-3.23-0.06,0.41c-1.13,1.11-2.2,2.27-3.36,3.35c-2.36,2.2-4.81,4.32-7.23,6.45c-5.54,4.86-11.08,9.69-16.53,14.65
				c-11.63,10.59-23.31,21.13-35.16,31.47c-23.63,20.61-47.11,41.35-70.25,62.52c-23.08,21.13-46.1,42.33-69.14,63.51
				c-22.1,20.32-44.41,40.29-65.23,61.95c-9.1,9.46-19.24,19.63-25.25,31.41c-7.55,14.79-9.33,34.54,7.49,44.04
				c18.19,10.27,37.5-2.82,51.56-13.82c11.33-8.87,21.82-18.54,32.56-28.09c23.04-20.49,46.67-40.4,70.28-60.23
				c11.83-9.94,23.76-19.77,35.81-29.44c6.02-4.83,12.07-9.63,18.15-14.39c2.53-1.98,5.07-3.96,7.61-5.93
				c-4.02,3.11,1.07-0.82,1.56-1.19c2.04-1.57,4.08-3.13,6.13-4.69c27.62-21.01,55.97-40.95,84.8-60.26
				c14.39-9.64,28.84-19.2,43.18-28.93c6.62-4.49,13.14-9.13,19.89-13.42c3.51-2.23,7.07-4.36,10.75-6.3
				c1.57-0.83,3.18-1.57,4.76-2.38c2.31-1.04,2.15-0.99-0.5,0.15c1.1-0.44,2.2-0.85,3.32-1.24c-9.23-9.23-18.45-18.45-27.68-27.68
				c2.55-6.06-1.45,2.03-2.38,3.45c-0.6,0.92-1.33,2.53-2.21,3.17c0.54-0.7,1.07-1.4,1.61-2.11c-0.66,0.81-1.33,1.6-2.02,2.38
				c-3.8,4.31-8.02,8.22-12.37,11.96c-9.4,8.08-19.07,15.87-28.61,23.79c-20.89,17.33-41.84,34.59-62.6,52.06
				c-41.51,34.94-82.71,70.71-120.5,109.69c-21.2,21.87-40.82,45.3-58.18,70.35c-6.72,9.7-2.11,25.41,8.07,30.78
				c11.48,6.06,23.61,2.28,30.78-8.07c3.72-5.38,7.58-10.65,11.49-15.89c2.48-3.32,0.2-0.29-0.27,0.32c1.08-1.41,2.19-2.8,3.29-4.2
				c2.21-2.79,4.45-5.55,6.73-8.28c8.36-10.08,17.12-19.83,26.16-29.3c18.54-19.43,38.2-37.85,58.05-55.93
				c40.78-37.13,83.43-72.1,125.87-107.3c10.91-9.05,22.02-17.91,32.7-27.23c12.2-10.64,21.48-22.76,27.76-37.69
				c3-7.13-0.67-16.78-5.79-21.89c-5.33-5.33-14.51-8.46-21.89-5.79c-14.64,5.31-27.45,13-40.23,21.76
				c-12.44,8.53-24.98,16.91-37.52,25.28c-24.56,16.39-49.08,32.84-72.92,50.27c-48.9,35.75-95.66,74.17-141.53,113.71
				c-11.14,9.6-22.42,19.03-33.41,28.8c-10.36,9.22-20.47,18.55-31.37,27.16c-4.16,3.28,4.13-2.83-0.4,0.29
				c-1.34,0.92-2.63,1.89-4,2.76c-0.5,0.32-3.63,2.63-4.17,2.4c2.08,0.86,3.73-1.93,0.37-0.28c-2.59,1.27,5.06,0.16,1.23-0.05
				c7.81,0.43,14.92,5.76,17.01,13.55c0.57,2.12,1.41,6.08,0.06,8.1c0.43-0.65,0.71-2.27,0.9-3.06c0.63-2.57-2.83,5.56-0.98,2.35
				c0.44-0.76,0.79-1.57,1.22-2.34c1.05-1.85,2.3-3.53,3.51-5.28c0.6-0.87,2.14-3.54-0.31,0.36c0.91-1.45,2.28-2.79,3.39-4.09
				c2.7-3.15,5.51-6.2,8.36-9.21c19.7-20.77,40.83-39.91,61.92-59.23c22.1-20.25,44.14-40.58,66.23-60.85
				c25.03-22.96,50.28-45.64,75.94-67.89c12.88-11.16,25.53-22.58,38.13-34.05c11.49-10.46,26.35-20.28,34.22-33.97
				c4.8-8.35,3.82-20.53-3.52-27.27c-6.84-6.28-19.09-9.53-27.27-3.52c-48.43,35.59-93.67,75.24-139.44,114.12
				c-45.02,38.25-90.24,76.28-135.45,114.3c-11.99,10.08-23.81,20.33-35.48,30.78c-2.63,2.35-5.26,4.69-7.97,6.95
				c-1.03,0.86-2.06,1.92-3.2,2.62c5.12-3.13-1.11,0.73-2.1,1.41c-2.73,1.86-5.6,3.35-8.43,5.03c-4.6,2.72,4.53-1.28-0.53,0.32
				c-2.05,0.65-4.05,1.3-6.15,1.8c8.47,11.02,16.94,22.03,25.41,33.05c1.2-2.58-2.11,2.3-2.2,2.41c1.93-2.21-3.95,2.63-4.92,3.03
				c-4.21,1.77,0.92,0.38-3.93,1.05c-5.8,0.8-12.67-0.98-16.66-5.67c-1.93-3.31-3.86-6.62-5.79-9.93c0.02,0.08,0.04,0.16,0.07,0.24
				c0-3.99,0-7.98,0-11.96c0.27-1.48,7.61-13.65,12.25-13.37c-1.18-0.07-3.1,0.88-4.23,1.14c9.23,9.23,18.45,18.45,27.68,27.68
				c0.35-0.99,1.12-4.08-0.36,0.46c0.27-0.83,0.75-1.66,1.13-2.46c0.91-1.94,1.85-3.82,2.93-5.67c2.13-3.63,4.43-7.18,6.74-10.7
				c4.49-6.86,9.22-13.57,14.13-20.13c0.54-0.72,4.23-5.52,2.43-3.23c-1.74,2.22,0.07-0.09,0.36-0.45c0.71-0.9,1.42-1.81,2.14-2.71
				c2.5-3.15,5.03-6.27,7.59-9.36c5.15-6.23,10.42-12.37,15.73-18.47c23.26-26.72,48.09-52.11,73.12-77.17
				c49.86-49.94,101.71-97.82,153.19-146.07c7.14-6.69,14.28-13.39,21.4-20.11c6-5.66,11.29-11.99,17.13-17.82
				c5.72-5.71,11.57-11.33,16.68-17.62c7.23-8.9,12.41-17.46,16.68-28.09c6.14-15.29-12.48-33.62-27.68-27.68
				c-8.5,3.32-16.25,6.59-21.46,14.51c-7.77,11.81-1.52,27.81,10.88,33.04c15.97,6.74,33.28-4.37,38.26-19.88
				c2.43-7.55-0.3-16.4-5.79-21.89c-5.92-5.92-13.91-7.5-21.89-5.79c-4.94,1.06-9.84,3.09-14.26,5.5c-1.65,0.9-3.21,1.93-4.73,3.02
				c-0.67,0.48-1.32,0.98-1.98,1.48c-1.52,1.17-3.04,2.35-4.55,3.52c-1.59,1.26-1.75,1.39-0.47,0.4c2.21-1.62-0.43,0.29-0.73,0.51
				c-1.05,0.76-2.09,1.53-3.13,2.3c-1.56,1.15-3.11,2.3-4.67,3.45c-4.11,3.04-8.2,6.11-12.29,9.18
				c-15.26,11.5-30.38,23.21-45.37,35.07c-27.33,21.63-54.19,43.84-80.98,66.13c-13.83,11.51-27.65,23.05-41.51,34.53
				c-6.85,5.68-13.71,11.34-20.58,16.99c-4.08,3.36-8.8,6.62-11.3,11.46c-1.01,1.97,1.5-2.22,1.75-2.12
				c-0.17-0.06-2.6,2.1-3.02,2.44c-2,1.62-4,3.25-5.99,4.88c-27.95,22.84-55.31,46.39-83.6,68.82c-1.95,1.54-3.9,3.08-5.85,4.61
				c-0.73,0.57-1.47,1.15-2.2,1.72c-0.45,0.35-4.53,3.5-2.14,1.67c2.09-1.6-0.39,0.29-0.68,0.52c-1.24,0.94-2.47,1.89-3.71,2.83
				c-1.98,1.51-3.98,3-5.97,4.49c-8.04,6-16.17,11.86-24.42,17.55c-7.72,5.33-15.52,10.63-23.8,15.06
				c-2.04,1.09-4.14,2.04-6.21,3.07c-2.41,1.2,1.42-0.6,1.41-0.58c-0.24,0.49-3.35,1.23-4.03,1.46c-2.16,0.71-4.34,1.32-6.56,1.79
				c-0.23,0.05-2.44,0.33-2.49,0.48c2.91-0.35,3.51-0.44,1.79-0.29c-0.84,0.08-1.69,0.13-2.54,0.15
				c7.23,9.49,14.46,18.99,21.7,28.48c0.12-0.5,0.69-3.34-0.01-0.5c-0.63,2.54-0.15,0.31,0.49-0.29c3.1-2.91-2.29,2.39,0.62-0.7
				c2.69-2.85,5.4-5.66,8.18-8.42c5.54-5.51,10.77-11.32,16.16-16.96c11.14-11.65,22.49-23.1,34.02-34.36
				c23.96-23.39,48.62-46.08,73.12-68.89c48.45-45.1,96.04-91.5,146.97-133.82c26.13-21.71,52.93-42.93,74.47-69.42
				c7.15-8.79,9.08-20.07,1.76-29.54c-6.39-8.27-19.77-12.22-29.03-5.8c-28.71,19.92-52.65,46.03-77.94,69.94
				c-26.25,24.82-52.17,49.98-77.67,75.56c-25.31,25.38-50.15,51.24-74.21,77.8c-23.57,26.02-46.31,52.78-70.78,77.97
				c-13.8,14.21-28.3,27.68-42.75,41.22c-6.45,6.05-12.96,12.08-19.74,17.76c-0.6,0.5-1.22,0.98-1.81,1.49
				c-2.26,1.95,4.45-3.04,0.12-0.14c-1.55,1.03-3.07,2.08-4.68,3.01c-0.9,0.52-1.85,0.94-2.76,1.45c-2.35,1.31,3.74-0.94,1.16-0.59
				c-0.39,0.05-1.84,0.34-2.13,0.58c3.36-0.32,4.16-0.44,2.4-0.34c-0.72,0.05-1.43,0.04-2.15-0.02
				c6.48,11.29,12.95,22.57,19.43,33.86c7.69-14.55,17.98-27.5,27.19-41.09c9.5-14.02,18.56-28.34,28.08-42.35
				c9.74-14.35,19.66-28.58,29.84-42.62c5.1-7.03,10.28-14.01,15.51-20.95c2.52-3.35,5.06-6.68,7.61-10.01
				c0.59-0.77,1.18-1.53,1.77-2.3c0.19-0.24,2.15-2.79,0.6-0.79c-1.55,2.01,0.42-0.54,0.61-0.78c0.79-1.02,1.58-2.04,2.38-3.05
				c42.29-54.25,86.91-107.06,135.64-155.65c26.71-26.63,54.77-51.92,84.48-75.18C679.71,87,669.1,76.39,658.5,65.79
				c-58.05,51.3-117.9,100.51-177.28,150.25c-58.6,49.09-117.84,97.87-172.82,151.05c-15.05,14.55-29.87,29.35-44.14,44.67
				c-7.3,7.84-14.41,15.84-21.77,23.62c-3.23,3.42-6.71,6.59-9.94,9.99c-1.59,1.68-3.04,3.48-4.61,5.18c-0.33,0.36-1.21,1-1.39,1.44
				c2.74-1.92,3.4-2.41,1.96-1.47c-1.43,0.86-0.68,0.62,2.23-0.74c8.47,11.02,16.94,22.03,25.41,33.05
				c4.88-7.22,9.93-14.32,15.14-21.31c1.13-1.51,2.26-3.01,3.4-4.51c0.56-0.74,1.1-1.52,1.7-2.23c-0.18,0.22-2.23,2.86-0.66,0.85
				c2.69-3.44,5.39-6.87,8.13-10.27c10.38-12.86,21.17-25.38,32.2-37.69c22.72-25.36,46.34-49.93,69.6-74.79
				c47.41-50.69,93.63-102.48,141.39-152.85c13.26-13.98,26.78-27.72,39.93-41.81c6.23-6.67,12.23-13.53,18.04-20.58
				c7.48-9.07,14.91-17.02,18.15-28.7c5.08-18.35-16.26-36.16-33.05-25.41c-14.28,9.14-27.08,20.52-39.28,32.23
				c-11.99,11.52-23.96,23.09-35.88,34.67c-24.4,23.7-48.17,48.04-71.53,72.77c-23.55,24.93-46.7,50.24-69.7,75.67
				c-22.76,25.16-46.07,49.94-68.35,75.53c-10.04,11.53-19.37,23.65-29.68,34.95c-5.3,5.81-10.85,11.41-16.84,16.5
				c-0.73,0.62-5.05,4.09-2.57,2.16c2.47-1.93-1.95,1.37-2.74,1.92c-3.43,2.36-7,4.49-10.68,6.44
				c11.29,6.48,22.57,12.95,33.86,19.43c0.21-5.14-1.85,4.42,0.12-0.42c0.16-0.53,0.32-1.06,0.48-1.58c0.86-2.33,0.73-2.1-0.39,0.69
				c-0.47-0.57,3.8-6.97,4.1-7.46c3.68-6.02,7.63-11.88,11.37-17.87c7.32-11.73,14.4-23.61,21.84-35.27
				c15.18-23.8,31.3-46.99,47.8-69.9c8.33-11.57,16.69-23.13,25.41-34.42c-2.76,3.58-0.13,0.19,0.57-0.7
				c0.98-1.25,1.96-2.49,2.94-3.74c2.16-2.74,4.34-5.46,6.54-8.17c4.59-5.67,9.24-11.3,13.93-16.89
				c18.44-21.93,37.56-43.31,57.07-64.3c21.92-23.58,44.44-46.59,67.28-69.27c8.36-8.31,8.93-23.62,0-31.82
				c-9.13-8.38-22.74-8.71-31.82,0c-91.7,88.05-180.94,179-261.32,277.63c-23.25,28.53-45.79,57.67-67.48,87.41
				c12.95,7.57,25.9,15.14,38.86,22.71c14.88-26.32,31.47-51.61,49.11-76.16c4.45-6.19,8.96-12.34,13.52-18.44
				c2.28-3.06,4.58-6.1,6.88-9.14c0.77-1.01,1.54-2.02,2.31-3.03c0.54-0.71,5.47-7.11,2.29-3c9.34-12.06,18.86-23.98,28.51-35.79
				c39.4-48.2,80.93-94.62,123.18-140.32c23.56-25.49,48.86-50.15,67.45-79.68c7.71-12.25,0.26-29.46-13.45-33.05
				c-9.05-2.37-18.52-0.24-26.12,5.06c-1.45,1.01-2.84,2.15-4.24,3.23c-7.49,5.78,4.7-3.63-0.8,0.62
				c-3.96,3.06-7.85,6.13-11.57,9.47c-10.3,9.26-20.56,18.57-30.78,27.92c-20.84,19.05-40.95,38.92-60.66,59.13
				c-39.24,40.24-75.42,83.05-112.32,125.39c-10.38,11.9-20.88,23.69-31.61,35.28c-5.23,5.65-10.5,11.26-15.94,16.72
				c-2.39,2.4-4.93,4.62-7.37,6.96c-3.96,3.79,3.25-2.07-0.36,0.39c-0.75,0.57-1.53,1.11-2.32,1.62c-4.87,2.58-1.26,2.34,10.83-0.72
				c5.24,9.23,10.48,18.45,15.71,27.68c-1.27,2.83-1.56,3.59-0.87,2.3c0.99-1.77,0.12-0.68-2.6,3.26c-3.31,1.93-6.62,3.86-9.93,5.79
				c0.08-0.03,0.15-0.06,0.23-0.09c-5.78-0.76-11.56-1.51-17.34-2.27c0.05,0.03,0.11,0.06,0.16,0.09
				c-3.45-4.48-6.89-8.96-10.34-13.45c-1-2.7-0.59-8.52-0.1-10.06c-0.3,1.02-0.03,0.4,0.82-1.86c1.91-5.57,6.17-9.34,12.79-11.29
				c3.99,0,7.98,0,11.96,0c-0.17-0.03-0.33-0.06-0.5-0.09c4.48,11.02,8.96,22.03,13.45,33.05c9.41-21.74,20.38-42.75,33.34-62.58
				c13.75-21.04,29.49-40.88,44.79-60.81c0.95-1.23,1.89-2.46,2.84-3.7c0.71-0.92,3.3-4.28,0.46-0.6c1.89-2.44,3.78-4.88,5.68-7.32
				c3.77-4.85,7.56-9.69,11.36-14.53c7.57-9.63,15.19-19.22,22.85-28.78c15.58-19.44,31.32-38.74,47.14-57.98
				c4.3-5.23,8.51-10.34,13.38-15.04c2.78-2.68,5.25-5.5,7.61-8.55c5.63-7.28-2.65,2.95,1.23-1.41c1.05-1.18,2.07-2.4,3.08-3.61
				c9.73-11.54,19.38-24.06,22.64-39.16c1.94-9-0.63-17.91-8.06-23.65c-6.65-5.14-17.65-6.89-24.99-1.76
				c-23.01,16.1-41.55,37.52-60.92,57.64c-19.16,19.89-38.24,39.88-56.45,60.64c-36.66,41.79-69.87,86.36-102.64,131.21
				c-9.07,12.41-18.16,24.81-27.39,37.1c-2.31,3.07-4.62,6.14-6.95,9.19c-0.97,1.27-1.94,2.55-2.92,3.82
				c-0.78,1.02-1.56,2.03-2.34,3.05c1.37-1.77,1.56-2.02,0.58-0.76c-4.94,6.3-9.88,12.59-14.91,18.81
				c11.78,9.09,23.56,18.18,35.34,27.27c2.49-5.12,5.24-10.12,8.49-14.8c1.32-1.91,4.14-4.1-1.15,1.33
				c0.44-0.46,0.78-1.02,1.22-1.48c0.42-0.44,0.99-0.92,1.33-1.42c1.55-1.4,0.28-0.44-3.81,2.89c3.39-2.13-0.19-1.19-10.75,2.84
				c-3.79-1.02-7.57-2.05-11.36-3.07c0.02,0.02,0.05,0.04,0.07,0.05c-3.45-4.48-6.89-8.96-10.34-13.45
				c-1.67-3.98,1.17-15.47-0.14-11c2.29-7.84,2.61-5.57,1.49-3.75c-0.81,1.32-1.58,2.65-2.44,3.94c-1.33,1.99-2.73,3.93-4.16,5.84
				c-0.41,0.55-3.08,3.97-1.06,1.42c2.11-2.67-2.34,2.9-2.73,3.38c11.78,9.09,23.56,18.18,35.34,27.27
				c23.51-48.01,55.79-90.64,88.29-132.83c3.71-4.82,7.68-9.52,11.02-14.61c0.93-1.41,1.78-2.87,2.68-4.3
				c0.51-0.8,2.84-5.63,0.65-1.26c1.61-3.21,5.34-6.25,7.67-8.98c9.12-10.67,18.27-21.32,27.45-31.94
				c9.03-10.46,18.08-20.9,27.16-31.32c4.38-5.03,8.77-10.07,13.17-15.09c2.33-2.67,4.67-5.34,7-8.01c1.07-1.22,2.16-2.43,3.22-3.67
				c1.49-1.68,2.88-3.44,4.16-5.29c-1.76,2.26-1.87,2.44-0.34,0.56c1.09-1.24,2.14-2.52,3.18-3.8c0.74-0.91,6.86-8.74,3.28-4.21
				c2.35-2.96,4.65-5.96,6.99-8.93c5.06-6.41,10.16-12.79,15.2-19.21c10.44-13.31,20.76-26.72,30.09-40.83
				c9.5-14.37-3.03-34.03-19.43-33.86c-3.88,0.04-7.98,0.45-11.63,1.76c-5.08,1.82-8.71,4.82-12.92,8.08
				c-4.88,3.78-9.72,7.62-14.49,11.54c-8.78,7.22-17.35,14.68-25.76,22.33c-16.68,15.16-32.72,31.02-48.76,46.85
				c-16.83,16.62-32.47,34.37-48.8,51.47c-16.93,17.73-33.47,35.81-50.14,53.78c-9.25,9.97-18.54,19.91-27.96,29.72
				c-4.89,5.1-9.67,10.49-14.96,15.18c-0.77,0.68-1.56,1.35-2.35,2.02c-0.77,0.66-1.55,1.31-2.34,1.94c0.72-0.57,1.44-1.13,2.15-1.7
				c0.01,0.51-2.75,1.67-3.21,2.01c-1.47,0.77-0.86,0.57,1.83-0.61c-1.04,0.39-2.1,0.72-3.18,0.99
				c8.47,11.02,16.94,22.03,25.41,33.05c3.24-7.55,1.33,2.62-10.48,5.95c-3.99,0-7.98,0-11.96,0c0.09,0.03,0.17,0.06,0.26,0.09
				c-4.48-3.45-8.96-6.89-13.45-10.34c-7.16-10.03-0.51-25.72,10.22-28.75c9.23,9.23,18.45,18.45,27.68,27.68
				c1.15-5.07-2.91,4.27-0.03-0.08c1.39-2.1,2.62-4.32,3.94-6.47c2.92-4.77,5.86-9.53,8.83-14.28c5.33-8.51,10.75-16.97,16.25-25.38
				c11.07-16.89,22.49-33.55,34.24-49.98c5.94-8.31,11.96-16.56,18.04-24.76c1.32-1.78,2.65-3.55,3.97-5.33
				c2.5-3.39,0.51-0.74-0.01-0.07c0.79-1.04,1.61-2.06,2.42-3.09c3.55-4.53,7.1-9.06,10.66-13.58
				c13.67-17.37,27.99-34.39,41.03-52.24c3.23-4.42,5.95-9.2,8.71-13.92c1.29-2.2,2.58-4.41,3.94-6.57c0.6-0.96,1.21-1.92,1.84-2.86
				c0.47-0.7,3.6-5.66,0.49-0.98c1.27-1.9,3.11-3.32,4.64-4.97c1.58-1.71,2.93-3.65,4.26-5.56c2.12-3.04-0.28,0.18-1.1,1.32
				c3.34-4.63,6.01-8.87,6.96-14.54c0.7-4.16,1.16-8.14,0.65-12.32c-1-8.16-3.66-15.05-11.14-19.43c-6.59-3.86-16.17-4.43-22.71,0
				c-31.86,21.58-57.43,50.08-82.66,78.79c-24.49,27.86-48.35,56.13-71.94,84.75c-13.39,16.25-27,32.31-41.48,47.61
				c11.78,9.09,23.56,18.18,35.34,27.27c0.51-0.8,1.08-1.56,1.6-2.36c2.06-3.1-3.88,4.7-1.36,1.76c1.42-1.66,2.81-3.33,4.3-4.93
				c1.19-1.28,2.39-2.56,3.65-3.77c0.42-0.41,0.9-0.79,1.29-1.22c0.59-0.65,2.86-2.26-1.59,1.17c-2.95,2.27-2.17,2.06-7.13,3.69
				c-3.99,0-7.98,0-11.96,0c0.01,0.01,0.03,0.01,0.04,0.02c-5.51-7.23-11.01-14.46-16.52-21.7c-0.02-4.71,5.19-14.41,2.66-10.63
				c-0.38,0.57,4.46-5.35,2.73-3.55c-0.94,0.98-1.78,2.09-2.69,3.1c-3.38,3.79-6.87,7.48-10.36,11.16
				c11.78,9.09,23.56,18.18,35.34,27.27c18.74-29.82,39.43-58.76,61.32-86.36c-2.79,3.52,1.29-1.51,1.98-2.36
				c1.44-1.78,2.88-3.57,4.32-5.35c3.07-3.79,6.14-7.56,9.23-11.33c5.89-7.2,11.8-14.37,17.72-21.53
				c11.46-13.86,22.95-27.69,34.34-41.61c13.79-16.87,27.35-33.91,40.65-51.17c5.39-7,3.11-18.69-1.76-24.99
				c-5.15-6.67-15.22-11.09-23.65-8.06c-9.49,3.41-14.55,10.01-20.36,17.71c-5.12,6.79-10.49,15.52-6.99,24.42
				c3.26,8.3,11.41,17.86,21.7,16.52c7.43-0.97,13.4-3.28,18.2-9.04c4.47-5.37,8.65-11,12.87-16.57
				c10.32-13.62-3.63-34.63-19.43-33.86c-8.03,0.39-14.04,3.32-19.72,8.94c-3.35,3.32-6.45,6.95-9.64,10.43
				c-6.12,6.66-12.21,13.35-18.26,20.07c-12.14,13.48-24.12,27.1-35.97,40.84c-11.63,13.5-23.13,27.12-34.49,40.84
				c-11.78,14.23-22.87,29.21-35.04,43.11c-6.15,7.03-11.97,14.42-18.28,21.3c-2.5,2.73-4.83,5.49-6.91,8.57
				c-0.64,0.95-1.26,1.91-1.88,2.87c-0.47,0.71-2.31,4.8-1.16,1.88c0.79-2.01,0.49-0.62-0.41,0.15c-1.02,0.87-1.92,1.88-2.91,2.78
				c-0.14,0.13-1.84,1.52-1.81,1.6c2.25-1.65,2.7-2,1.35-1.04c-0.66,0.48-1.35,0.93-2.05,1.36c10.26,10.26,20.52,20.52,30.78,30.78
				c2.8-5.49,2.62-1.48-5.38,3.88c-5.78,0.76-11.56,1.51-17.34,2.27c0.05,0.02,0.11,0.03,0.16,0.05
				c-5.24-5.24-10.48-10.48-15.71-15.71c0.01,0.08,0.03,0.17,0.04,0.25c0-3.99,0-7.98,0-11.96c0.56-2.9,3.97-7.23,7.45-9.56
				c10.26,10.26,20.52,20.52,30.78,30.78c7.87-15.2,16.2-30.16,25.24-44.71c9.5-15.3,20.41-29.46,30.79-44.15
				c5.27-7.46,10.71-14.78,16.23-22.06c2.72-3.58,5.46-7.15,8.19-10.72c0.2-0.26,2.15-2.79,0.58-0.75c-1.7,2.2,0.76-0.99,1.16-1.5
				c1.36-1.75,2.72-3.5,4.07-5.25c11.72-15.08,23.51-30.1,35.03-45.33c6.01-7.95,11.94-15.96,17.73-24.08
				c6.46-9.06,12.53-17.93,14.6-29.12c1.49-8.09,0.26-15.85-5.79-21.89c-5.71-5.71-14.11-7.85-21.89-5.79
				c-9.37,2.48-16.2,8.22-23.68,13.97c-7.87,6.04-15.73,12.11-23.55,18.22c-13.63,10.65-27.13,21.45-40.42,32.52
				c-25.16,20.94-49.87,42.7-72.18,66.69c-13.37,14.38-25.78,29.69-36.98,45.81c-6.39,9.21-2.45,22.66,5.8,29.03
				c9.54,7.37,20.58,5.28,29.54-1.76c24.89-19.55,43.89-45.86,65.44-68.82c23.62-25.16,47.59-49.75,68.69-77.12
				c5.79-7.51,3.14-21.16-3.52-27.27c-6.91-6.35-18.99-9.43-27.27-3.52c-5.4,3.85-10.31,7.99-14.52,13.1
				c-4.91,5.95-9.56,11.68-10.62,19.56c-1.66,12.33,6.65,23.7,19.16,25.38c7.77,1.04,14.31-1.72,20.01-6.88
				c6.41-5.81,11.53-13.59,16.75-20.37c5.78-7.51,3.14-21.15-3.52-27.27c-6.94-6.38-18.95-9.38-27.27-3.52
				c-15.45,10.89-29.02,23.68-41.86,37.49C118.34,78.7,106.25,91.16,94.64,104c-25.47,28.16-48.5,58.48-75.41,85.35
				c11.78,9.09,23.56,18.18,35.34,27.27c4.12-7.32,8.67-14.37,13.57-21.18c1.05-1.46,2.11-2.91,3.19-4.34
				c0.72-0.96,1.44-1.91,2.17-2.86c-1.51,1.94-1.76,2.28-0.76,1.01c2.46-3.02,4.86-6.08,7.35-9.08
				c10.41-12.53,21.28-24.67,31.84-37.08c21.34-25.06,42.53-50.32,66.59-72.85c8.61-8.06,8.75-23.78,0-31.82
				C169.3,29.93,155.89,29.8,146.71,38.4L146.71,38.4z"/>
		</g>
	</g>
	<g>
		<g>
			<path class="st1" d="M16.23,72.44c20.08,10.92,41.57,6.88,61.29-2.53c15.95-7.62,31.32-16.69,46.88-25.07
				c-11.29-6.48-22.57-12.95-33.86-19.43c0.12,0.81,0.16,1.62,0.12,2.43c-0.06,1.74,0.05,1.08,0.31-1.98
				c-1.56,0.62-0.16,6.73,0.03,0.82c-0.07,2.25-3.22,5.98-4.4,7.94c-3.25,5.37-6.83,10.5-10.54,15.56
				c-3.31,4.51,3.04-3.74-0.47,0.63c-1.02,1.28-2.04,2.56-3.08,3.82c-1.91,2.33-3.85,4.62-5.81,6.89
				c-4.13,4.77-8.37,9.44-12.64,14.07c-18.02,19.53-36.5,38.77-50.98,61.2c-6.4,9.91-2.34,25.28,8.07,30.78
				c11.18,5.91,23.96,2.5,30.78-8.07c1.78-2.76,3.61-5.48,5.52-8.15c0.95-1.33,1.94-2.64,2.9-3.97c2.95-4.08-2.42,2.96,0.48-0.64
				c4.14-5.11,8.35-10.15,12.71-15.07c8.76-9.86,17.9-19.36,26.77-29.12c9.74-10.72,19.07-21.83,27.48-33.63
				c8.87-12.44,19.05-27.58,17.74-43.52c-1.39-17.05-18.02-27.96-33.86-19.43c-13.44,7.25-26.85,14.58-40.34,21.74
				c-3.23,1.71-6.49,3.46-9.88,4.86c3.63-1.5,0.38-0.26-1.46,0.32c-1.68,0.53-3.4,0.86-5.09,1.34c-4.3,1.2,4.4,0.22-0.42,0.01
				c-1.31-0.06-2.72-0.08-4.02-0.03c-1.74-0.12-1.07-0.01,2.01,0.34c-0.79-0.14-1.56-0.31-2.33-0.53c-5.55-1.48,2.69,1.69-1.23-0.45
				c-10.34-5.62-24.99-2.9-30.78,8.07C2.6,52.17,5.19,66.44,16.23,72.44L16.23,72.44z"/>
		</g>
	</g>
</g>
<g id="mouth">
	<g>
		<path class="st2" d="M736.11,314.48c-33.44,11.94-96.08,7.64-95.61-39.65c0-23.41,23.55-34.87,32.03-54.93
			c6.12-14.33,9.89-30.57,6.59-46.33c-3.3-13.85-6.54-31.22-20.2-37.91c15.58-12.69,35.26-24.69,53.63-29.44
			c9.89-2.39,16.48-1.43,24.96,3.34c36.26,20.54,49.45,73.56,51.34,113.21C790.27,260.51,773.31,301.11,736.11,314.48z"/>
		<g>
			<path d="M734.78,309.66c-14.19,4.97-29.62,6.45-44.55,4.91c-13.83-1.42-29.37-6.17-38.09-17.74c-4.52-6-6.53-13.37-6.64-20.81
				c-0.14-9.85,4.45-17.95,10.54-25.38c6.05-7.38,12.92-14.2,17.85-22.44c5.96-9.99,9.41-22.08,10.86-33.55
				c1.62-12.85-0.88-25.53-4.73-37.78c-3.27-10.4-8.57-20.3-18.56-25.54c0.34,2.62,0.67,5.24,1.01,7.85
				c10.03-8.1,20.87-15.3,32.46-20.98c9.51-4.67,21.97-10.42,32.77-7.48c18.07,4.92,31.32,23.67,39.13,39.51
				c8.57,17.37,13.32,36.81,15.64,55.98c2.34,19.35,1.92,38.58-4.63,57.14C770.51,284.07,755.71,301.9,734.78,309.66
				c-5.98,2.22-3.39,11.89,2.66,9.64c43.99-16.31,59.83-64.55,55.59-107.88c-2.12-21.7-6.94-43.3-16.11-63.16
				c-8.66-18.76-22.73-37.6-42.41-45.7c-13.38-5.5-27.41-0.74-39.97,4.84c-14.17,6.29-27.11,15.01-39.15,24.72
				c-2.47,1.99-1.63,6.47,1.01,7.85c9.4,4.93,12.9,15.05,15.44,24.74c3.23,12.29,4.56,23.85,1.65,36.41
				c-2.61,11.27-6.97,21.57-14.33,30.52c-6.26,7.62-13.49,14.66-18.3,23.36c-8.4,15.19-6.82,35.02,3.98,48.65
				c9.57,12.08,24.92,18,39.77,20.21c17.49,2.61,36.08,1.3,52.81-4.56C743.47,317.19,740.87,307.52,734.78,309.66z"/>
		</g>
	</g>
	<g>
		<path class="st3" d="M736.11,314.48c-33.44,11.94-96.08,7.64-95.61-39.65c0-23.41,23.55-34.87,32.03-54.93
			c6.12-14.33,9.89-30.57,6.59-46.33c-3.3-13.85-6.54-31.22-20.2-37.91c15.58-12.69,35.26-24.69,53.63-29.44
			c9.89-2.39,16.48-1.43,24.96,3.34c36.26,20.54,49.45,73.56,51.34,113.21C790.27,260.51,773.31,301.11,736.11,314.48z"/>
		<g>
			<path d="M734.78,309.66c-14.19,4.97-29.62,6.45-44.55,4.91c-13.83-1.42-29.37-6.17-38.09-17.74c-4.52-6-6.53-13.37-6.64-20.81
				c-0.14-9.85,4.45-17.95,10.54-25.38c6.05-7.38,12.92-14.2,17.85-22.44c5.96-9.99,9.41-22.08,10.86-33.55
				c1.62-12.85-0.88-25.53-4.73-37.78c-3.27-10.4-8.57-20.3-18.56-25.54c0.34,2.62,0.67,5.24,1.01,7.85
				c10.03-8.1,20.87-15.3,32.46-20.98c9.51-4.67,21.97-10.42,32.77-7.48c18.07,4.92,31.32,23.67,39.13,39.51
				c8.57,17.37,13.32,36.81,15.64,55.98c2.34,19.35,1.92,38.58-4.63,57.14C770.51,284.07,755.71,301.9,734.78,309.66
				c-5.98,2.22-3.39,11.89,2.66,9.64c43.99-16.31,59.83-64.55,55.59-107.88c-2.12-21.7-6.94-43.3-16.11-63.16
				c-8.66-18.76-22.73-37.6-42.41-45.7c-13.38-5.5-27.41-0.74-39.97,4.84c-14.17,6.29-27.11,15.01-39.15,24.72
				c-2.47,1.99-1.63,6.47,1.01,7.85c9.4,4.93,12.9,15.05,15.44,24.74c3.23,12.29,4.56,23.85,1.65,36.41
				c-2.61,11.27-6.97,21.57-14.33,30.52c-6.26,7.62-13.49,14.66-18.3,23.36c-8.4,15.19-6.82,35.02,3.98,48.65
				c9.57,12.08,24.92,18,39.77,20.21c17.49,2.61,36.08,1.3,52.81-4.56C743.47,317.19,740.87,307.52,734.78,309.66z"/>
		</g>
	</g>
	<g>
		<path d="M780.38,185.22c-2.35-0.96-7.54-4.3-10.36-3.34c-4.71,2.39-1.88,2.87-1.88,6.69c0,5.25,1.88,17.67-7.06,9.55
			c-5.18-3.82-1.41-13.85-9.89-11.46c-11.77,4.3-6.59,19.58-1.88,26.27l37.52,2.84V187.1L780.38,185.22z"/>
	</g>
	<g id="tongue">
		<g>
			<path class="st4" d="M661.05,310.74c13.35-70.77,85.18-103.11,126.22-95.81l22.14,56.05l-60.7,59.11l-77.75,4.45L661.05,310.74z"
				/>
			<g>
				<path d="M665.87,312.07c8.89-45.63,45.73-81.62,91.07-91.18c9.44-1.99,19.44-2.77,29-1.14c-1.16-1.16-2.33-2.33-3.49-3.49
					c7.38,18.68,14.76,37.36,22.14,56.05c0.43-1.62,0.86-3.24,1.29-4.86c-20.23,19.7-40.47,39.41-60.7,59.11
					c1.18-0.49,2.36-0.98,3.54-1.46c-25.92,1.48-51.83,2.97-77.75,4.45c1.61,1.22,3.21,2.45,4.82,3.67c-3.3-7.93-6.6-15.86-9.9-23.8
					c-2.44-5.86-12.12-3.29-9.64,2.66c3.3,7.93,6.6,15.86,9.9,23.8c0.82,1.97,2.45,3.81,4.82,3.67c23.9-1.37,47.81-2.74,71.71-4.1
					c3.14-0.18,7.01,0.19,9.59-1.82c2.17-1.69,4.07-3.96,6.03-5.87c10.22-9.96,20.45-19.91,30.67-29.87
					c8-7.79,15.99-15.58,23.99-23.36c1.17-1.14,1.92-3.27,1.29-4.86c-4.23-10.72-8.47-21.44-12.7-32.17
					c-2.47-6.25-4.93-12.5-7.4-18.74c-0.61-1.54-1.15-3.14-1.84-4.65c-1.63-3.57-3.8-4.08-7.48-4.55
					c-34.38-4.39-70.98,13.08-94.92,36.84c-17.28,17.15-29,39.14-33.66,63.03C655.01,315.7,664.64,318.39,665.87,312.07z"/>
			</g>
		</g>
	</g>
	<g id="lips">
		<path class="st5" d="M793.56,114.34c-24.02-36.78-71.12-61.62-114.45-46.81c-29.2,10.03-58.09,39.01-56.99,72.13
			c0.47,30.57,30.3,36.62,40.66,57.47c12.56,21.5-11.93,49.05-32.66,67.68c-14.6,12.9-27.01,21.97-17.43,46.81
			c13.69,30.26,46.16,35.35,77.71,37.26c35.32,2.39,68.29,0.96,94.67-26.27C837.84,269.1,831.24,174.05,793.56,114.34z
			 M736.11,314.48c-33.44,11.94-96.08,7.64-95.61-39.65c0-23.41,23.55-34.87,32.03-54.93c6.12-14.33,9.89-30.57,6.59-46.33
			c-3.3-13.85-6.54-31.22-20.2-37.91c15.58-12.69,35.26-24.69,53.63-29.44c9.89-2.39,16.48-1.43,24.96,3.34
			c36.26,20.54,49.45,73.56,51.34,113.21C790.27,260.51,773.31,301.11,736.11,314.48z"/>
		<g>
			<path d="M734.78,309.66c-14.19,4.97-29.62,6.45-44.55,4.91c-13.83-1.42-29.37-6.17-38.09-17.74c-4.52-6-6.53-13.37-6.64-20.81
				c-0.14-9.85,4.45-17.95,10.54-25.38c6.05-7.38,12.92-14.2,17.85-22.44c5.96-9.99,9.41-22.08,10.86-33.55
				c1.62-12.85-0.88-25.53-4.73-37.78c-3.27-10.4-8.57-20.3-18.56-25.54c0.34,2.62,0.67,5.24,1.01,7.85
				c10.03-8.1,20.87-15.3,32.46-20.98c9.51-4.67,21.97-10.42,32.77-7.48c18.07,4.92,31.32,23.67,39.13,39.51
				c8.57,17.37,13.32,36.81,15.64,55.98c2.34,19.35,1.92,38.58-4.63,57.14C770.51,284.07,755.71,301.9,734.78,309.66
				c-5.98,2.22-3.39,11.89,2.66,9.64c43.99-16.31,59.83-64.55,55.59-107.88c-2.12-21.7-6.94-43.3-16.11-63.16
				c-8.66-18.76-22.73-37.6-42.41-45.7c-13.38-5.5-27.41-0.74-39.97,4.84c-14.17,6.29-27.11,15.01-39.15,24.72
				c-2.47,1.99-1.63,6.47,1.01,7.85c9.4,4.93,12.9,15.05,15.44,24.74c3.23,12.29,4.56,23.85,1.65,36.41
				c-2.61,11.27-6.97,21.57-14.33,30.52c-6.26,7.62-13.49,14.66-18.3,23.36c-8.4,15.19-6.82,35.02,3.98,48.65
				c9.57,12.08,24.92,18,39.77,20.21c17.49,2.61,36.08,1.3,52.81-4.56C743.47,317.19,740.87,307.52,734.78,309.66z"/>
			<path d="M797.88,111.81c-16.9-25.51-43.49-45.68-73.84-51.73c-30.77-6.13-61.82,4.13-83.79,26.38
				c-19.05,19.28-32.8,52.96-15.4,77.67c12.81,18.18,44.44,29.98,34.02,56.98c-5.8,15.04-18.4,27.43-30.03,38.13
				c-8.93,8.21-19.84,15.93-23.34,28.19c-4.07,14.26,2.67,29.93,11.86,40.69c8.85,10.36,21.48,16.7,34.44,20.28
				c14.33,3.96,29.36,5,44.15,5.82c15.75,0.86,31.75,0.76,47.22-2.71c30.28-6.79,53.51-28.84,67.61-55.84
				c26.55-50.87,21.27-115.4-3.05-166.04C804.77,123.51,801.48,117.57,797.88,111.81c-3.41-5.44-12.06-0.43-8.63,5.05
				c27.74,44.34,37.56,103,21.41,153.22c-8.21,25.54-24.62,50.94-48.72,63.95c-25.51,13.78-57.05,11.67-84.94,8.77
				c-25.92-2.69-56.88-12.32-62.21-41.85c-2.25-12.47,5.34-20.62,14.02-28.34c10.96-9.75,21.64-19.77,30.26-31.72
				c7.56-10.48,14.03-23.51,11.6-36.78c-1.99-10.85-9.98-19.7-18.01-26.72c-7.84-6.85-16.78-13.16-21.79-22.54
				c-6.16-11.53-4.28-26.39,0.56-38.05c10.93-26.31,39.13-46.09,67.36-48.37c28.91-2.33,57,11.27,76.92,31.63
				c5.06,5.16,9.56,10.76,13.55,16.79C792.78,122.2,801.45,117.2,797.88,111.81z"/>
		</g>
	</g>
	<g>
		<g>
			<path d="M655.39,132.13c-3.08,2.52-6.09,5.11-9,7.81c-1.98,1.83-1.86,5.21,0,7.07c1.98,1.98,5.08,1.84,7.07,0
				c2.92-2.7,5.93-5.3,9-7.81c2.09-1.71,1.77-5.3,0-7.07C660.39,130.06,657.48,130.41,655.39,132.13L655.39,132.13z"/>
		</g>
	</g>
	<g>
		<path class="st6" d="M677.57,122.51c-8.23,4.13,12.2,40.53,24.46,35.46c15.54-6.69-3.61-35.03-8.32-44.1L677.57,122.51z"/>
		<g>
			<path d="M675.05,118.19c-6.28,3.74-4.51,12.16-2.34,17.8c3.03,7.89,7.82,15.73,14.14,21.42c5.52,4.96,12.88,8.3,19.71,3.76
				c7.81-5.19,7.19-15.17,4.65-23.09c-3.07-9.56-8.52-17.94-13.17-26.74c-1.29-2.45-4.54-3.03-6.84-1.79
				C685.81,112.43,680.43,115.31,675.05,118.19c-5.67,3.04-0.63,11.68,5.05,8.63c5.38-2.88,10.76-5.77,16.14-8.65
				c-2.28-0.6-4.56-1.2-6.84-1.79c2.22,4.22,21.7,36.99,9.9,37.05c-5.36,0.03-10.99-9.16-13.38-13.13
				c-1.86-3.08-3.52-6.33-4.53-9.79c-0.36-1.22-0.56-2.35-0.7-3.59c-0.18-1.48,0.56-0.78-0.58-0.1
				C685.62,123.53,680.6,114.89,675.05,118.19z"/>
		</g>
	</g>
	<g>
		<path class="st6" d="M723.67,105.72c7.44,8.12,23.72,43.95,1.86,45.39c-12.55,0.96-22.08-30.21-25.79-38.8L723.67,105.72z"/>
		<g>
			<path d="M720.14,109.25c4.49,5.07,7.46,12.22,9.45,18.62c1.44,4.64,4.61,15-1.5,17.68c-7.09,3.12-12.03-8.02-14.45-12.79
				c-3.76-7.43-6.34-15.33-9.59-22.98c-1,2.45-1.99,4.9-2.99,7.34c7.98-2.19,15.96-4.39,23.94-6.58c6.2-1.7,3.57-11.35-2.66-9.64
				c-7.98,2.19-15.96,4.39-23.94,6.58c-3.43,0.94-4.22,4.43-2.99,7.34c5.68,13.38,16.08,51.47,38.23,39.12
				c9.2-5.13,8.65-16.98,6.41-25.81c-2.31-9.11-6.57-18.85-12.85-25.95C722.93,97.36,715.88,104.45,720.14,109.25z"/>
		</g>
	</g>
	<g>
		<g>
			<path d="M750.63,234.83c-21.48,8.13-45.47,22.92-51.22,46.8c-1.51,6.25,8.14,8.92,9.64,2.66c4.88-20.26,26.03-32.93,44.23-39.82
				C759.25,242.21,756.67,232.54,750.63,234.83L750.63,234.83z"/>
		</g>
	</g>
	<path class="st7" d="M689.34,113.47"/>
</g>
<g id="line">
	<g>
		<path class="st6" d="M763.31,390.97c-80.11,11.08-152.6,23.88-228.89,39.17c-55.57,10.51-113.98,25.79-167.67,44.9
			c-19.78,6.69-60.28,12.42-73.47,30.57c-17.9,25.79,30.14,38.21,48.04,41.08c72.53,10.51,147.89-31.53,215.71-50.63
			c65.94-19.11,132.81-33.44,198.75-52.54c15.07-4.78,44.27-11.46,52.75-27.7C824.54,382.37,785.56,389.56,763.31,390.97z"/>
		<g>
			<path d="M761.98,386.15c-46.1,6.39-92.07,13.69-137.88,21.87c-44.93,8.02-89.97,16.21-134.47,26.37
				c-22.64,5.17-45.13,10.99-67.42,17.5c-20.37,5.95-40.24,13.42-60.54,19.52c-14.92,4.48-30.27,7.43-44.83,13.08
				c-12.53,4.86-27.34,12.19-31.58,26.11c-7.73,25.4,31.18,36.15,48.72,39.8c38.5,8.02,78.93-0.76,115.77-12.3
				c40.93-12.82,80.46-29.39,121.81-40.98c45.87-12.86,92.25-23.74,138.32-35.82c20.01-5.25,39.99-10.65,59.76-16.75
				c13.93-4.3,30.07-9.5,39.72-21.12c6.9-8.31,12.24-24.12,3.05-32.76c-8.02-7.55-21.78-6.64-31.89-6.02
				c-5.74,0.35-11.46,0.95-17.19,1.33c-6.39,0.42-6.44,10.43,0,10c10.92-0.72,22.2-2.64,33.13-1.25c3.19,0.41,7.78,1.13,9.8,3.97
				c2.62,3.68,0.15,9.78-1.45,13.33c-5.77,12.8-22.58,18.03-34.87,21.96c-17.57,5.62-35.42,10.43-53.25,15.18
				c-43.5,11.58-87.32,21.91-130.78,33.64c-19.74,5.33-39.44,10.83-58.78,17.49c-19.23,6.62-38.23,13.92-57.43,20.63
				c-37.07,12.96-76.08,24.64-115.79,22.07c-12.4-0.8-24.61-3.34-36.3-7.56c-7.74-2.79-21.78-8.05-23.17-17.66
				c-1.73-11.91,15.24-19.69,23.86-23.17c13.54-5.46,27.88-8.48,41.91-12.37c18.76-5.2,37.01-12.41,55.66-18.03
				c20.45-6.16,41.07-11.73,61.83-16.74c41.71-10.07,84.01-17.86,126.2-25.65c42.52-7.85,85.18-15,127.95-21.33
				c10.93-1.62,21.87-3.18,32.81-4.7C770.98,394.91,768.28,385.28,761.98,386.15z"/>
		</g>
	</g>
</g>
<g id="h">
	<g>
		<path class="st6" d="M718.4,312.42c-2.84-13.27-6.99-22.62-19.49-28.02c-13.34-5.86-25.49,5.57-27.15,19.14
			c-0.91,7.69,1.92,14.96,5.73,21.94c-1.54-13.66-10.8-41.6-28.79-36.88c-23.49,6.38-24.12,39.07-18.37,57.47
			c4.42,13.86,26.1,55.35,46.2,42.22c10.38-6.66,14.32-24.45,8.49-34.7c-1.6,8.96,3.87,26.22,13.19,28.16
			c4.93,1.02,19.54,0.72,23.9-14.69C726.49,351.63,720.6,321.11,718.4,312.42z"/>
		<g>
			<path d="M723.22,311.09c-1.9-8.63-4.71-17.37-11.08-23.8c-6.21-6.28-15.59-10.76-24.52-9.05c-8.95,1.71-15.75,8.95-18.94,17.21
				c-4.33,11.21-0.92,22.39,4.49,32.54c2.21,4.15,9.93,2.5,9.32-2.52c-1.8-14.75-8.19-36.97-24.49-41.65
				c-18.2-5.23-31.84,13.85-34.59,29.34c-2.9,16.33,0.24,32.43,7.54,47.13c6.58,13.24,17.39,31.68,33.17,35.03
				c23.14,4.91,34.17-27.25,25.22-44.27c-1.86-3.54-8.5-3.12-9.14,1.19c-1.61,10.91,2.14,25.92,11.98,32.27
				c7.84,5.06,19.78,2.43,26.57-3.17c10.18-8.38,10.42-23.11,9.74-35.21C727.83,334.4,726.06,322.5,723.22,311.09
				c-1.55-6.24-11.2-3.6-9.64,2.66c2.08,8.36,3.5,16.94,4.36,25.51c0.94,9.24,2.45,21.15-1.91,29.78
				c-2.94,5.81-10.7,9.36-16.48,7.87c-7.49-1.93-10.68-15.39-9.7-22.01c-3.05,0.4-6.09,0.8-9.14,1.19c5.1,9.71-0.7,33.34-15.2,29.26
				c-11.71-3.29-19.82-18.31-24.98-28.25c-5.56-10.73-8.6-21.88-8.18-34.05c0.41-11.69,5.26-28.84,19.49-29.97
				c6.84-0.55,11.42,6.27,14.2,11.56c3.34,6.35,5.57,13.7,6.44,20.83c3.11-0.84,6.21-1.68,9.32-2.52
				c-3.89-7.31-6.93-15.32-3.97-23.54c2.1-5.82,7.07-11.45,13.67-11.58c13.81-0.27,19.67,15.01,22.07,25.91
				C714.96,320.03,724.61,317.37,723.22,311.09z"/>
		</g>
	</g>
</g>
<g id="t_2_">
	<g>
		<path class="st6" d="M613.67,331.76c7.82-1.81,34.76-12.9,30.08-25.66c-3.72-9.35-17.99-13.16-25.98-14.19
			c-12.9-1.91-27.15,0.01-39.76,1.64c-13.26,1.74-35.53,6.23-32.15,24.97c3.57,19.78,18.68,20.38,33.8,15.78
			c1.61,20.71,0.1,35.66,4.99,53.4c2.1,7.86,12.33,18.85,21.18,19.01c14.62,0.16,18.36-17.02,18.29-30.63
			C624.19,361.36,618.53,345.56,613.67,331.76"/>
		<g>
			<path d="M615,336.58c11.39-2.78,26.82-9.66,32.49-20.57c8.36-16.09-12.89-26.15-25.39-28.46c-10.48-1.94-21.09-1.61-31.64-0.52
				c-8.46,0.88-17.13,1.71-25.39,3.82c-14.15,3.61-26.93,12.74-24.02,28.98c1.58,8.81,6.46,16.91,15.1,20.18
				c7.95,3,16.94,1.43,24.84-0.9c-2.11-1.61-4.22-3.21-6.33-4.82c1.3,17.67,0.21,35.79,4.73,53.08
				c3.3,12.63,16.11,26.38,30.24,24.01c13.71-2.3,18.23-17.13,19.25-29.13c1.52-17.92-4.54-35.19-10.4-51.82
				c-2.13-6.03-11.79-3.43-9.64,2.66c4.94,14.02,10.37,28.52,10.28,43.6c-0.05,7.87-1.02,22.99-10.99,24.85
				c-5.5,1.03-10.45-3.19-13.84-7.02c-4.21-4.74-5.55-10.18-6.67-16.29c-2.65-14.43-1.88-29.34-2.95-43.93
				c-0.23-3.15-3.02-5.8-6.33-4.82c-10.55,3.11-23.05,4.16-26.79-8.64c-1.52-5.19-1.54-10.28,2.68-14.13
				c3.81-3.48,9.12-5.13,14.03-6.34c14.03-3.46,29.79-5.07,44.17-4.04c6.28,0.45,12.85,1.65,18.56,4.41
				c3.5,1.69,9.65,5.3,7.94,10.03c-1.77,4.89-8.21,8.25-12.47,10.53c-4.45,2.38-9.2,4.43-14.12,5.64
				C606.09,328.46,608.73,338.11,615,336.58L615,336.58z"/>
		</g>
	</g>
</g>
<g id="u">
	<g>
		<path class="st6" d="M529.65,376.84c11.93-24.16-14.64-82.38-43.33-57.08c-32.84,28.94-7.06,97.15,34.13,102.4
			c43.71,5.75,56.17-47.83,47.25-82.66c-3.05-10.91-8.49-17.16-19.6-24.82c-16.42-11.33-40.72-2.81-31.69,6.27
			C534.37,339.01,532.55,369.92,529.65,376.84"/>
		<g>
			<path d="M533.97,379.36c6.88-14.61,3.17-32.56-3.46-46.59c-6.13-12.95-18.4-26.94-34.3-23.77
				c-15.96,3.18-26.37,20.99-28.86,35.85c-2.92,17.41,1.29,35.65,10.07,50.83c8.19,14.16,21.3,26.77,37.63,30.57
				c17,3.95,34.49-1.2,45.44-15c10.82-13.64,14.86-31.89,14.91-49c0.02-8.43-0.81-17.32-3.28-25.42
				c-3.04-9.96-9.39-17.46-17.6-23.65c-9.42-7.11-20.85-10.84-32.63-7.98c-7.5,1.82-15.99,8.55-10.9,16.94
				c1.49,2.46,3.88,4.33,5.59,6.64c1.61,2.19,2.98,4.57,4.18,7.01c2.48,5.05,4.01,10.63,4.91,16.18c1.18,7.26,1.92,16.48-0.84,23.54
				c-2.35,6,7.32,8.59,9.64,2.66c4.64-11.86,2.06-28.51-2-40.07c-1.33-3.77-2.97-7.48-5.01-10.92c-1.15-1.94-2.46-3.78-3.85-5.56
				c-0.55-0.7-4.05-4.03-3.98-4.52c0.43-2.92,11.62-3,14.31-2.63c9.08,1.24,17.91,7.8,23.44,14.94c4.68,6.03,6.42,13.71,7.35,21.14
				c1.78,14.27,0.46,29.68-5.24,42.98c-5.18,12.09-14.79,22.27-28.39,23.85c-14.48,1.67-27.57-5.1-37.07-15.64
				c-17.57-19.49-26.71-56.47-5.77-76.95c24.68-24.14,46.18,30.19,37.07,49.54C522.61,380.1,531.23,385.18,533.97,379.36
				L533.97,379.36z"/>
		</g>
	</g>
</g>
<g id="o_1_">
	<g>
		<path class="st6" d="M438.02,327.07c-24.22-7.42-43.69-4.43-63.87,19.43c-14.44,17.07-10.91,69.69,24.78,88.6
			c22.05,12.03,61.71,2.37,72.87-22.41C486.82,379.71,471.07,341.04,438.02,327.07z M435.26,386.06c-5.1,9.1-11.6,9.62-18.36,7.09
			c-16.53-7.19-12.31-29.81,6.55-27.91C429.63,367.12,440.93,375.94,435.26,386.06z"/>
		<g>
			<path d="M439.35,322.25c-13.11-3.92-27.28-5.58-40.37-0.64c-12.27,4.63-25.05,14.49-31.64,25.97
				c-10.55,18.38-6.82,44.17,1.78,62.47c10.81,23.01,33.22,37.52,58.86,34.87c12.64-1.31,25.04-5.66,35.08-13.58
				c10.37-8.19,16.23-20.13,18.4-33.03c5.28-31.33-11.75-62.86-40.91-75.55c-5.84-2.54-10.94,6.07-5.05,8.63
				c21.93,9.55,36.98,30.79,37.02,54.98c0.02,10.96-2.83,23.42-10.15,31.9c-6.97,8.07-16.98,12.97-27.23,15.38
				c-9.89,2.33-20.93,2.47-30.47-1.35c-9.56-3.83-17.59-11.5-23-20.13c-9.63-15.36-13.71-36.47-8.09-54
				c3.54-11.04,14.45-20.18,24.45-25.28c12.31-6.29,25.86-4.83,38.67-1C442.87,333.74,445.51,324.09,439.35,322.25z"/>
			<path d="M430.94,383.53c-3.62,6.05-9.41,7.84-15.26,3.16c-3.2-2.55-5.01-6.82-3.63-10.83
				C416.1,364.06,435.95,373.34,430.94,383.53c-2.83,5.75,5.79,10.83,8.63,5.05c5.58-11.35-1.85-23.32-13.08-27.52
				c-8.83-3.3-19.56,1.67-23.3,10.14c-3.83,8.7-0.28,18.61,7.26,24c10.61,7.6,22.64,4.18,29.12-6.63
				C442.89,383.05,434.25,378.01,430.94,383.53z"/>
		</g>
	</g>
	<g>
		<g>
			<path d="M430.94,383.53c-3.62,6.05-9.41,7.84-15.26,3.16c-3.2-2.55-5.01-6.82-3.63-10.83
				C416.1,364.06,435.95,373.34,430.94,383.53c-2.83,5.75,5.79,10.83,8.63,5.05c5.58-11.35-1.85-23.32-13.08-27.52
				c-8.83-3.3-19.56,1.67-23.3,10.14c-3.83,8.7-0.28,18.61,7.26,24c10.61,7.6,22.64,4.18,29.12-6.63
				C442.89,383.05,434.25,378.01,430.94,383.53z"/>
		</g>
	</g>
	<g>
		<g>
			<path d="M430.94,383.53c-3.62,6.05-9.41,7.84-15.26,3.16c-3.2-2.55-5.01-6.82-3.63-10.83
				C416.1,364.06,435.95,373.34,430.94,383.53c-2.83,5.75,5.79,10.83,8.63,5.05c5.58-11.35-1.85-23.32-13.08-27.52
				c-8.83-3.3-19.56,1.67-23.3,10.14c-3.83,8.7-0.28,18.61,7.26,24c10.61,7.6,22.64,4.18,29.12-6.63
				C442.89,383.05,434.25,378.01,430.94,383.53z"/>
		</g>
	</g>
	<g>
		<g>
			<path d="M218.51,214.12c3.22,0,3.22-5,0-5C215.29,209.12,215.28,214.12,218.51,214.12L218.51,214.12z"/>
		</g>
	</g>
</g>
<g id="m">
	<g>
		<path class="st6" d="M311.63,386.21c2.95,15.94,10.98,77.48,30.27,80.19c25.99,3.84,33.69-14.87,34.3-35.58
			c1.37-13.2-2.1-26.81-4.12-39.51c-2.29-16.77-5.86-32.95-12.82-48.63c-11.22-25.26-27.75-49.66-56.27-53.4
			c-19.29-2.71-26.34,10.47-31.85,27.13c-5.51,16.66-2.32,31.97,5.07,47.46c-5.36-29.51-37.61-61.4-64.16-72.32
			c-27.6-10.96-48.21,8.93-54.76,36.03c-9.13,38.75,0.95,82.35,18.1,117.47c9.76,19.64,23.38,37.51,38.77,53.54
			c5.29,4.92,10.53,10.91,17.38,13.54c14.33,5.5,26.97,0.25,36.29-11.35c25.47-31.03-2.6-77.93-16.34-108.85
			c1.58,18.66,28.77,61.25,50.71,50.18c23.58-12.3,13.32-33.75,9.22-57.13"/>
		<g>
			<path d="M306.81,387.54c4.01,21.9,6.75,44.57,15.92,65.08c3.61,8.07,9.06,17.11,18.5,18.7c13.64,2.29,27.44-2.29,34.18-14.92
				c7.05-13.22,7.01-30.62,5.06-45.03c-2.69-19.97-5.64-40.8-12.37-59.86c-10.41-29.44-30.09-62.25-63.79-67.04
				c-7.73-1.1-15.65-0.35-22.15,4.33c-5.9,4.25-9.62,10.56-12.42,17.13c-3.89,9.13-6.61,18.74-6.37,28.75
				c0.27,11.17,3.82,21.7,8.51,31.72c2.54,5.42,10.16,1.38,9.14-3.85c-3.5-17.97-14.53-34.01-27.01-47.02
				c-12.01-12.53-27.29-24.79-44.11-30.01c-15.46-4.8-31.57-0.36-42.5,11.53c-12.59,13.69-16.81,32.51-18.16,50.54
				c-3.12,41.85,10.83,86.39,34.08,120.98c6.09,9.06,12.89,17.68,20.15,25.84c6.45,7.25,13.53,15.41,22.02,20.33
				c17.25,9.99,36.35,2.32,47.56-12.57c25.79-34.26-2.65-80.1-17.24-112.75c-1.99-4.45-9.8-2.31-9.32,2.52
				c1.9,18.82,15.1,39,30.06,50.13c7.16,5.33,16.42,8.76,25.24,5.64c10.49-3.72,18.47-13.07,20-24.06
				c1.86-13.38-3.19-26.96-5.54-39.99c-1.14-6.32-10.78-3.64-9.64,2.66c2.07,11.48,7,23.98,5.39,35.78
				c-1.32,9.64-11.29,19.1-21.38,16.21c-9.59-2.74-17.17-11.97-22.52-19.88c-5.19-7.66-10.65-17.08-11.6-26.49
				c-3.11,0.84-6.21,1.68-9.32,2.52c6.43,14.39,13.78,28.38,19.14,43.24c5.12,14.2,9.32,30.29,5.22,45.28
				c-4.09,14.92-18.2,29.83-34.87,25.54c-8.77-2.26-15.38-9.6-21.38-16.01c-6.5-6.93-12.68-14.19-18.3-21.85
				C174.84,440.48,160.69,403,159,365.47c-0.77-17.04,0.44-36.03,8.59-51.38c6.27-11.8,17.03-21.22,31.05-20.56
				c16.94,0.8,33.49,14.51,45.04,25.78c12.81,12.49,24.21,28.02,27.69,45.9c3.05-1.28,6.09-2.57,9.14-3.85
				c-7.55-16.14-9.14-31.8-2.81-48.61c4.21-11.18,10.78-19.99,23.82-18.64c28.97,3.01,46.3,32.01,55.69,56.65
				c6.26,16.41,8.49,33.49,11.57,50.66c2.6,14.5,4.55,30.15,0.17,44.54c-3.48,11.42-12.19,16.83-24.02,15.79
				c-7.46-0.65-11.01-8.24-13.76-14.64c-8.44-19.62-10.91-41.4-14.72-62.24C315.3,378.56,305.66,381.24,306.81,387.54L306.81,387.54
				z"/>
		</g>
	</g>
</g>
<g id="y">
	<g>
		<path class="st6" d="M528.81,154.94c0.87-51.59,51.44-44.16,67.39-2.87c14.42,37.33,26.45,81.13,0.57,109.86
			c-15.98,17.74-44.43,22.93-65.34,31.53c-21.78,8.6-43.56,17.2-67.08,22.93c-19.17,4.78-80.15,10.51-68.82-31.53
			c7.84-26.75,62.73-23.88,82.76-30.57c20.91-7.64,10.68-5.01,28.65-15.6c-12.9-4.97-23.8-16.88-23.8-16.88
			c-12.44-15.29-22.32-39.17-20.57-59.23c0.87-16.24,13.07-30.57,27.88-30.57c33.11,0.96,51.4,38.21,54.89,69.74"/>
		<g>
			<path d="M533.81,154.94c0.36-14.02,5.67-31.67,22.63-31.28c15.24,0.36,27.48,13.71,33.54,26.53
				c5.18,10.93,8.82,23.09,11.93,34.76c3.16,11.85,5.36,24.05,4.99,36.36c-0.35,11.48-3.28,22.81-9.89,32.32
				c-6.46,9.3-15.97,15.39-26.13,20.03c-10.7,4.89-22.08,8.1-33.14,12.06c-13.03,4.67-25.76,10.16-38.8,14.83
				c-17.78,6.38-36.08,12.57-55.05,13.84c-12.31,0.82-28.8,1.21-38.95-7.1c-10.77-8.81-5.72-25.8,4.83-32.26
				c16.13-9.88,37.45-10.21,55.66-12.94c9.19-1.38,17.61-3.85,26.13-7.65c6.41-2.86,11.86-7.85,17.88-11.43
				c4.02-2.39,2.62-7.58-1.19-9.14c-26.04-10.61-42.23-42.68-40.81-69.81c0.76-14.46,11.06-28.9,26.89-26.76
				c13.01,1.76,23.57,10.57,30.7,21.18c8.58,12.77,13.52,28.05,15.29,43.27c0.74,6.32,10.74,6.39,10,0
				c-3.46-29.7-18.91-67.9-52.13-73.9c-18.04-3.26-33.52,7.48-38.91,24.81c-5.65,18.18,0.7,39.39,9.13,55.65
				c8.22,15.86,20.44,28.38,37.2,35.2c-0.4-3.05-0.8-6.09-1.19-9.14c-5.89,3.5-11.27,8.46-17.53,11.27
				c-8.12,3.65-16.33,5.67-25.08,6.95c-18.7,2.73-39.49,3.6-56.23,13.31c-14.28,8.28-22.12,28.22-12.41,43.04
				c8.7,13.28,27.14,15.66,41.69,15.74c19.41,0.11,37.88-4.75,56.2-10.83c15.17-5.03,29.93-11.08,44.84-16.81
				c11.92-4.58,24.24-8.01,36.01-12.98c11.66-4.93,22.81-11.41,30.8-21.44c7.89-9.89,12.22-21.62,13.68-34.12
				c3.11-26.62-5.93-54.53-15.81-78.89c-6.67-16.44-20.4-32.26-38.71-35.38c-17.41-2.97-31.3,7.93-35.89,24.45
				c-1.47,5.27-2.02,10.8-2.16,16.26C523.65,161.38,533.65,161.37,533.81,154.94L533.81,154.94z"/>
		</g>
	</g>
	<g>
		<g>
			<path d="M508.18,244.47c13.18,3.2,26.63,2.44,40.01,1.13c6.35-0.62,6.41-10.62,0-10c-12.43,1.21-25.09,2.2-37.35-0.78
				C504.58,233.31,501.92,242.95,508.18,244.47L508.18,244.47z"/>
		</g>
	</g>
</g>
<g id="t_1_">
	<g>
		<path class="st6" d="M415.72,182.96c0.73,19.84-6.98,77.11,21.97,79.79c12.93,1.35,23.32-17.43,25.15-29.03
			c2.6-18.51,0.01-36.55-7.85-52.87l2.87-1.45c11.6-2.15,23.49-5.04,28.17-18.04c3.82-10.8-0.15-24.29-5.84-33.37
			c-7.4-11.94-25.8-12.31-38.02-11.9c-15.69,0.53-30.19,4.88-45.14,9.86c-4.37,1.45-8.12,4.22-10.9,8.24
			c-2.89,4.19-4.6,8.71-5.8,13.64c-2.08,8.56-0.53,18.34,3.58,25.52c6.56,11.46,16.27,15.08,28.38,10.32L415.72,182.96z"/>
		<g>
			<path d="M410.72,182.96c0.7,21.94-3.57,45.54,4.81,66.54c3.92,9.82,11.59,17.82,22.71,18.28c14.56,0.61,24.31-15.31,28.13-27.4
				c6.27-19.84,1.55-43.72-7.06-62.06c-0.6,2.28-1.2,4.56-1.79,6.84c3-1.51,6.07-1.73,9.37-2.59c4.08-1.06,8.21-2.52,11.82-4.73
				c7.55-4.63,12.3-12.3,13.47-21.03c1.39-10.31-1.67-21.2-6.9-30.08c-4.37-7.42-11.44-11.78-19.68-13.84
				c-19.6-4.9-41.19-0.7-60.07,5.08c-10.6,3.25-19.77,6.33-25.46,16.54c-5.25,9.42-6.95,20.7-4.45,31.2
				c2.25,9.44,8.26,19.03,17.41,23.02c8.36,3.65,15.71,0.8,24.03-0.95c6.29-1.32,3.63-10.97-2.66-9.64
				c-4.91,1.03-9.66,3.35-14.78,2.3c-6.77-1.38-11.35-8.09-13.45-14.23c-2.92-8.52-1.98-17.96,2.16-25.92
				c4.56-8.78,12.8-10.57,21.64-13.21c15.36-4.59,31.74-7.66,47.81-5.52c6.05,0.8,12.94,2.54,17,7.45c5,6.04,7.79,15.32,7.77,23.06
				c-0.03,8.27-4.11,15.16-11.65,18.62c-5.96,2.73-12.58,2.9-18.42,5.84c-2.56,1.29-2.88,4.52-1.79,6.84
				c7.13,15.19,10.25,33.39,7.17,50.03c-1.63,8.78-8.96,25.6-20.15,24.35c-7.97-0.9-11.98-8.36-14.05-15.3
				c-2.87-9.63-3.27-19.88-3.33-29.86c-0.06-9.87,0.72-19.76,0.41-29.62C420.52,176.54,410.52,176.51,410.72,182.96z"/>
		</g>
	</g>
</g>
<g id="t">
	<g>
		<path class="st6" d="M375.12,181.37c12.44-8.23,33.36-21.03,20.5-38.16c-15.29-20.39-52.46-13.08-73.82-5.76
			c-19.85,7.02-43.81,15.54-35.47,42.79c5.3,17.32,31.12,15.66,46.2,13.43l0.54,2.51c5.71,24.5,7.61,90.34,46.43,78.59
			C419.85,262.34,389.55,203.66,375.12,181.37"/>
		<g>
			<path d="M377.64,185.69c13.82-9.13,34.91-23.35,23.94-42.52c-9.81-17.14-32.06-19.58-49.76-17.63
				c-17.73,1.95-36.26,7.21-52.08,15.58c-7,3.71-13.77,8.91-17.28,16.2c-3.93,8.16-3.56,18.08-0.17,26.37
				c7.95,19.44,34.71,17.25,51.57,14.81c-2.05-1.16-4.1-2.33-6.15-3.49c2.95,13.62,4.47,27.5,7.48,41.11
				c2.98,13.5,7.31,29.46,18.4,38.69c11.95,9.94,30.14,7.28,41.18-2.93c11.84-10.96,11.08-28.64,7.52-43.04
				c-4.37-17.73-13.01-34.7-22.86-49.99c-3.47-5.39-12.13-0.38-8.63,5.05c7.65,11.87,14.35,24.58,18.97,37.94
				c4.04,11.68,8.52,27.79,1.2,39.13c-6.15,9.54-21.76,13.9-30.91,6.26c-9.44-7.88-12.71-22.37-15.23-33.77
				c-3-13.61-4.52-27.49-7.48-41.11c-0.62-2.87-3.6-3.86-6.15-3.49c-10.97,1.59-29.55,4.11-37.71-5.61
				c-4.22-5.03-4.99-14.13-2.7-20.14c2.26-5.91,7.64-9.86,12.99-12.82c12.03-6.65,26.2-10.86,39.64-13.45
				c13.68-2.64,31.49-4.3,43.4,4.58c6.63,4.95,10.24,12.47,5.13,19.78c-4.78,6.82-12.54,11.34-19.36,15.85
				C367.25,180.59,372.25,189.25,377.64,185.69L377.64,185.69z"/>
		</g>
	</g>
</g>
<g id="o">
	<g>
		<g>
			<path class="st8" d="M324.66,197.07c-5.41-9.41-12.49-17.18-21.6-20.68c-15.51-5.97-24.27-7.42-38.44-4.75
				c-21.63,5.59-25.95,6.63-37.16,19.79c-19.11,22.1-8.31,66.28,10.38,84.14c26.58,24.92,77.26,14.1,90.14-23.03
				C333.8,235.14,333.39,212.58,324.66,197.07z M292.26,230.44c-1.24,8.93-12.05,13.16-19.1,11.75
				c-16.62-3.76-15.72-25.47,0.19-29.58C285.38,208.33,293.92,219.63,292.26,230.44z"/>
			<g>
				<path d="M328.98,194.55c-3.99-6.78-8.81-13.05-15.15-17.79c-6.34-4.75-14.31-7.36-21.91-9.35c-14.85-3.88-29.31-1.07-43.65,3.53
					c-23.51,7.54-36.69,30.13-35.81,54.25c0.88,23.98,11.84,51.58,34.46,62.7c21.14,10.39,47.67,7.18,66.29-7.04
					C338.5,261.51,343.79,221.9,328.98,194.55c-3.07-5.66-11.7-0.62-8.63,5.05c11.2,20.67,8.86,51.83-8.07,68.85
					c-13.67,13.75-35.18,18.97-53.69,13.36c-20.78-6.29-31.4-26.56-35.06-46.74c-3.58-19.73,1.84-42.38,21.13-52.06
					c4.91-2.46,10.46-3.72,15.75-5.11c7.09-1.86,14.17-3.1,21.52-2.29c7.47,0.82,15.99,3.32,22.58,6.95
					c6.97,3.85,11.87,10.29,15.84,17.03C323.61,205.14,332.26,200.11,328.98,194.55z"/>
				<path d="M287.44,229.11c-2.3,11.99-22.89,10.4-21.34-2.5c0.64-5.33,5.06-8.53,10-9.62c8.28-1.83,11.96,6.53,11.16,13.44
					c-0.74,6.38,9.27,6.33,10,0c1.37-11.82-6.98-24.33-19.74-23.72c-10.57,0.51-20.17,8.26-21.31,18.98
					c-1.07,10.06,5.76,19.17,15.62,21.31c10.57,2.29,23.14-4.22,25.25-15.24C298.28,225.48,288.65,222.79,287.44,229.11z"/>
			</g>
		</g>
	</g>
</g>
<g id="P">
	<g>
		<path class="st9" d="M205.87,196.92c12.77-7.44,25.06-15.88,33.91-27.8c14.75-19.37,8.43-46.26-3.8-65.69
			c-23.96-39.85-77.43-44.44-115.25-24.61C92.75,93.68,80.91,128,91.64,156.88c19.07,33.37,31.27,63.25,49.85,96.62
			c10.76,19.43,18.57,42.34,32.76,59.78c24.95,30.9,65.22,11.08,65.3-27.23c-0.45-18.41-7.78-32.36-18.06-47.31
			c-4.4-6.48-9.79-12.46-14.68-18.44c-2.44-2.99-10.77-9.48-11.75-12.96C193.6,201.37,199.98,200.39,205.87,196.92z M173.18,151.26
			c-7.38,3.46-18.43-2.12-19.34-11.84c-0.6-7.29-0.04-14.55,12.01-14.55c5.84,1.06,11.68,2.11,13.81,8.71
			C181.8,140.17,178.72,148.49,173.18,151.26z"/>
		<g>
			<path d="M208.4,201.24c22.65-13.29,45.79-31.6,44.92-60.42c-0.72-23.82-14.19-47.96-33.18-62.09
				c-17.42-12.96-40.06-17.85-61.46-15.96c-21.8,1.93-45.14,9.97-59.56,27.17c-14.77,17.63-20.2,42.22-13.61,64.35
				c2.16,7.27,6.69,13.74,10.24,20.41c3.64,6.85,7.16,13.77,10.62,20.72c6.96,13.97,13.68,28.06,20.83,41.94
				c6.91,13.41,14.23,26.54,20.69,40.18c6.08,12.83,12.29,25.68,21.01,36.97c12.45,16.09,32.61,24.44,51.71,14.52
				c19.7-10.23,26.31-33.61,22.8-54.24c-2.26-13.3-8.74-25.4-16.18-36.49c-4.27-6.36-9.11-12.23-14.02-18.09
				c-3.48-4.16-7.4-7.65-11.11-11.57c-1.6-1.68-2.54-1.97-1.38-3.44C202.11,203.45,206.44,202.33,208.4,201.24
				c5.62-3.14,0.58-11.78-5.05-8.63c-4.12,2.3-9.56,3.85-12.13,8.15c-2.48,4.14-1.25,8.8,1.55,12.37c2.75,3.51,6.27,6.25,9.34,9.46
				c4.65,4.85,8.99,10.34,12.97,15.74c13.28,18.03,25.76,42.37,16.12,64.87c-6.41,14.96-23,24.79-38.88,18.14
				c-10.35-4.34-17.12-14.2-22.7-23.46c-6.79-11.27-12.02-23.37-17.78-35.18c-6.11-12.52-13.11-24.58-19.39-37.02
				c-6.33-12.53-12.38-25.2-18.67-37.75c-3.06-6.12-6.18-12.21-9.39-18.25c-3.33-6.26-7.73-12.47-9.61-19.34
				c-2.74-10-2.73-20.63-0.09-30.65c10.99-41.79,63.17-55.46,100.42-42.85c22.89,7.75,39.69,27.13,46.03,50.29
				c3.55,12.95,3.16,26.9-4.74,38.21c-8.28,11.85-20.78,20.09-33.05,27.28C197.8,195.85,202.83,204.5,208.4,201.24z"/>
			<path d="M171.85,146.44c-4.33,1.76-9.3,0.24-11.8-3.84c-1.51-2.46-2.45-8.32-0.51-10.86c2.57-3.36,10.09-1.83,13.1,0.29
				c5.03,3.53,2.62,12.23-1.99,14.91c-5.56,3.23-0.53,11.88,5.05,8.63c9.27-5.4,12.82-19.14,6.43-28.06
				c-5.61-7.84-19.64-10.1-27.52-4.72c-7.02,4.8-7.4,16.19-4.01,23.27c4.09,8.52,14.88,13.69,23.9,10.01
				C180.39,153.69,177.82,144.01,171.85,146.44z"/>
		</g>
	</g>
</g>
<g id="shade">
	<g>
		<g>
			<path d="M99.83,153.21c5.26-2.86,10.33-6.03,15.39-9.24c5.42-3.44,0.41-12.09-5.05-8.63c-5.06,3.2-10.12,6.38-15.39,9.24
				C89.13,147.64,94.17,156.28,99.83,153.21L99.83,153.21z"/>
		</g>
	</g>
	<g>
		<g>
			<path d="M105.17,174.54c7.3-4.22,14.37-8.83,21.66-13.06c5.57-3.22,0.54-11.87-5.05-8.63c-7.3,4.23-14.37,8.83-21.66,13.06
				C94.55,169.13,99.58,177.78,105.17,174.54L105.17,174.54z"/>
		</g>
	</g>
	<g>
		<g>
			<path d="M116.86,194.78c4.85-4.21,10.68-7.2,16.63-9.54c5.92-2.33,3.34-12.01-2.66-9.64c-7.65,3.01-14.8,6.7-21.05,12.11
				C104.91,191.93,112.01,198.98,116.86,194.78L116.86,194.78z"/>
		</g>
	</g>
	<g>
		<g>
			<path d="M126.83,215.94c5.86-3.45,11.63-7.03,17.27-10.83c5.31-3.57,0.31-12.24-5.05-8.63c-5.64,3.79-11.41,7.38-17.27,10.83
				C116.25,210.57,121.27,219.22,126.83,215.94L126.83,215.94z"/>
		</g>
	</g>
	<g>
		<g>
			<path d="M139.71,233.14c4.37-2.13,8.41-5.02,12.93-6.82c2.51-1,4.26-3.34,3.49-6.15c-0.66-2.38-3.63-4.5-6.15-3.49
				c-5.37,2.14-10.15,5.31-15.32,7.83C128.88,227.32,133.94,235.95,139.71,233.14L139.71,233.14z"/>
		</g>
	</g>
	<g>
		<g>
			<path d="M146.61,255.11c7.05-4.19,14.25-8.12,21.04-12.74c5.29-3.6,0.29-12.27-5.05-8.63c-6.78,4.62-13.99,8.54-21.04,12.74
				C136.04,249.76,141.07,258.41,146.61,255.11L146.61,255.11z"/>
		</g>
	</g>
	<g>
		<g>
			<path d="M158.23,273.58c5.86-4.2,11.55-9.11,18.27-11.92c2.51-1.05,4.24-3.3,3.49-6.15c-0.62-2.36-3.66-4.53-6.15-3.49
				c-7.66,3.2-13.97,8.12-20.66,12.92C148,268.66,152.99,277.34,158.23,273.58L158.23,273.58z"/>
		</g>
	</g>
	<g>
		<g>
			<path d="M167.65,289.5c3.9-2.3,7.85-4.49,11.62-7.01c2.24-1.5,3.21-4.41,1.79-6.84c-1.3-2.23-4.59-3.3-6.84-1.79
				c-3.76,2.51-7.72,4.71-11.62,7.01C157.06,284.13,162.09,292.78,167.65,289.5L167.65,289.5z"/>
		</g>
	</g>
	<g>
		<g>
			<path d="M175.5,306.7c5.07-2.57,10.12-5.16,15.07-7.96c5.6-3.17,0.57-11.81-5.05-8.63c-4.95,2.8-10,5.39-15.07,7.96
				C164.71,300.98,169.77,309.61,175.5,306.7L175.5,306.7z"/>
		</g>
	</g>
	<g>
		<g>
			<path d="M185.23,317.84c2.59-1.36,4.88-3.21,7.54-4.46c2.37-1.11,3.17-4.71,1.79-6.84c-1.58-2.44-4.3-2.99-6.84-1.79
				c-2.66,1.25-4.94,3.1-7.54,4.46c-2.32,1.22-3.21,4.64-1.79,6.84C179.92,318.41,182.75,319.15,185.23,317.84L185.23,317.84z"/>
		</g>
	</g>
	<g>
		<g>
			<path d="M199.05,327.4c0.9-0.47,1.78-0.98,2.68-1.45c0.43-0.23,0.87-0.44,1.31-0.66c-1.05,0.51,0.55-0.18,0.78-0.25
				c2.49-0.77,4.34-3.52,3.49-6.15c-0.81-2.51-3.48-4.32-6.15-3.49c-2.55,0.79-4.81,2.15-7.16,3.37c-2.33,1.2-3.2,4.65-1.79,6.84
				C193.74,327.98,196.56,328.68,199.05,327.4L199.05,327.4z"/>
		</g>
	</g>
	<g>
		<g>
			<path d="M227.31,209.57c2.12-1.24,4.16-2.58,6.28-3.82c2.26-1.32,3.26-4.57,1.79-6.84c-1.47-2.28-4.42-3.21-6.84-1.79
				c-2.12,1.24-4.16,2.58-6.28,3.82c-2.26,1.32-3.26,4.57-1.79,6.84C221.94,210.05,224.89,210.99,227.31,209.57L227.31,209.57z"/>
		</g>
	</g>
	<g>
		<g>
			<path d="M225.49,231.09c3.58-1.51,6.78-3.43,9.99-5.6c2.23-1.51,3.22-4.4,1.79-6.84c-1.3-2.22-4.59-3.31-6.84-1.79
				c-2.4,1.62-5,3.5-7.6,4.59c-2.49,1.05-4.27,3.31-3.49,6.15C219.98,229.95,222.98,232.15,225.49,231.09L225.49,231.09z"/>
		</g>
	</g>
	<g>
		<g>
			<path d="M235.79,245.88c1.62-0.96,3.35-1.71,5.02-2.55c2.34-1.18,3.19-4.67,1.79-6.84c-1.54-2.39-4.34-3.05-6.84-1.79
				c-1.68,0.84-3.41,1.58-5.02,2.55c-2.25,1.34-3.27,4.56-1.79,6.84C230.4,246.34,233.38,247.31,235.79,245.88L235.79,245.88z"/>
		</g>
	</g>
	<g>
		<g>
			<path d="M244.89,261.8c2.39-1.52,4.7-3.15,7.22-4.46c2.33-1.21,3.21-4.65,1.79-6.84c-1.53-2.37-4.35-3.08-6.84-1.79
				c-2.52,1.31-4.84,2.93-7.22,4.46c-2.2,1.41-3.3,4.51-1.79,6.84C239.47,262.21,242.53,263.3,244.89,261.8L244.89,261.8z"/>
		</g>
	</g>
	<g>
		<g>
			<path d="M248.97,278.99c3.73-1.87,7.57-3.54,11.3-5.41c2.41-1.21,3.09-4.62,1.79-6.84c-1.44-2.46-4.42-3.01-6.84-1.79
				c-3.73,1.87-7.57,3.54-11.3,5.41c-2.41,1.21-3.09,4.62-1.79,6.84C243.57,279.66,246.55,280.21,248.97,278.99L248.97,278.99z"/>
		</g>
	</g>
	<g>
		<g>
			<path d="M270.01,287.27c2.71-1.37,5.42-2.8,8.23-3.95c2.49-1.03,4.27-3.32,3.49-6.15c-0.65-2.36-3.64-4.53-6.15-3.49
				c-3.62,1.49-7.12,3.19-10.61,4.96c-2.41,1.22-3.1,4.61-1.79,6.84C264.6,287.93,267.59,288.5,270.01,287.27L270.01,287.27z"/>
		</g>
	</g>
	<g>
		<g>
			<path d="M297.64,164.67c0.41-0.25,0.83-0.48,1.26-0.7c0.1-0.05,0.21-0.1,0.31-0.15c0.5-0.23,0.42-0.19-0.25,0.1
				c0.71-0.07,1.49-0.5,2.2-0.65c2.56-0.55,4.29-3.68,3.49-6.15c-0.87-2.7-3.41-4.09-6.15-3.49c-2.08,0.45-4.08,1.33-5.9,2.41
				c-2.25,1.34-3.26,4.56-1.79,6.84C292.26,165.14,295.24,166.1,297.64,164.67L297.64,164.67z"/>
		</g>
	</g>
	<g>
		<g>
			<path d="M301.71,178.09c2.85-0.36,5.7-0.73,8.55-1.13c2.6-0.37,4.25-3.81,3.49-6.15c-0.92-2.84-3.37-3.89-6.15-3.49
				c-0.48,0.07-0.97,0.14-1.45,0.2c-0.6,0.08-0.67,0.09-0.19,0.03c-0.26,0.03-0.52,0.07-0.78,0.1c-1.16,0.15-2.31,0.3-3.47,0.44
				c-2.58,0.33-5.13,2.06-5,5C296.82,175.52,298.93,178.44,301.71,178.09L301.71,178.09z"/>
		</g>
	</g>
	<g>
		<g>
			<path d="M326.59,190.65c1.04-0.43,2.08-0.87,3.11-1.33c0.33-0.15,0.66-0.3,0.99-0.45c0.19-0.09,0.39-0.17,0.58-0.25
				c-0.7,0.29-0.79,0.33-0.29,0.12c1.26-0.52,2.27-1.08,2.99-2.3c0.63-1.07,0.89-2.65,0.5-3.85c-0.39-1.21-1.14-2.38-2.3-2.99
				c-1.11-0.58-2.64-1-3.85-0.5c-1.04,0.43-2.08,0.87-3.11,1.33c-0.33,0.15-0.66,0.3-0.99,0.45c-0.19,0.09-0.39,0.17-0.58,0.25
				c0.7-0.29,0.79-0.33,0.29-0.12c-1.26,0.52-2.27,1.08-2.99,2.3c-0.63,1.07-0.89,2.65-0.5,3.85c0.39,1.21,1.14,2.38,2.3,2.99
				C323.84,190.73,325.37,191.15,326.59,190.65L326.59,190.65z"/>
		</g>
	</g>
	<g>
		<g>
			<path d="M343.48,207.02c2.09-1.07,4.13-2.23,6.28-3.18c2.4-1.06,3.14-4.75,1.79-6.84c-1.6-2.48-4.27-2.93-6.84-1.79
				c-2.15,0.95-4.19,2.11-6.28,3.18c-2.33,1.19-3.2,4.66-1.79,6.84C338.18,207.61,340.99,208.3,343.48,207.02L343.48,207.02z"/>
		</g>
	</g>
	<g>
		<g>
			<path d="M344.49,227.59c3.49-0.96,6.96-1.95,10.36-3.18c2.54-0.92,4.25-3.4,3.49-6.15c-0.67-2.45-3.6-4.42-6.15-3.49
				c-3.4,1.23-6.88,2.22-10.36,3.18C335.63,219.66,338.26,229.31,344.49,227.59L344.49,227.59z"/>
		</g>
	</g>
	<g>
		<g>
			<path d="M348.57,247.65c1.66-0.67,3.36-1.24,5.02-1.91c1.25-0.5,2.28-1.09,2.99-2.3c0.63-1.07,0.89-2.65,0.5-3.85
				c-0.76-2.34-3.55-4.53-6.15-3.49c-1.66,0.67-3.36,1.24-5.02,1.91c-1.25,0.5-2.28,1.09-2.99,2.3c-0.63,1.07-0.89,2.65-0.5,3.85
				C343.17,246.5,345.97,248.69,348.57,247.65L348.57,247.65z"/>
		</g>
	</g>
	<g>
		<g>
			<path d="M359.81,265.3c0.18-0.09,0.37-0.17,0.56-0.25c-0.4,0.17-0.8,0.34-1.19,0.5c0.95-0.4,1.91-0.75,2.84-1.2
				c1.08-0.53,1.99-1.86,2.3-2.99c0.33-1.2,0.18-2.79-0.5-3.85c-0.69-1.07-1.71-2.01-2.99-2.3c-1.37-0.31-2.59-0.11-3.85,0.5
				c-0.18,0.09-0.37,0.17-0.56,0.25c0.4-0.17,0.8-0.34,1.19-0.5c-0.95,0.4-1.91,0.75-2.83,1.2c-1.08,0.53-1.99,1.86-2.3,2.99
				c-0.33,1.2-0.18,2.79,0.5,3.85c0.69,1.07,1.71,2.01,2.99,2.3C357.32,266.12,358.55,265.92,359.81,265.3L359.81,265.3z"/>
		</g>
	</g>
	<g>
		<g>
			<path d="M396.85,177.77c1.06-0.03,2.08-0.3,3.12-0.46c-0.44,0.06-0.89,0.12-1.33,0.18c0.14-0.02,0.27-0.03,0.41-0.03
				c1.31-0.04,2.6-0.53,3.54-1.46c0.87-0.87,1.52-2.29,1.46-3.54c-0.06-1.29-0.48-2.63-1.46-3.54c-0.96-0.88-2.2-1.51-3.54-1.46
				c-1.06,0.03-2.08,0.3-3.12,0.46c0.44-0.06,0.89-0.12,1.33-0.18c-0.14,0.02-0.27,0.03-0.41,0.03c-1.31,0.04-2.6,0.53-3.54,1.46
				c-0.87,0.87-1.52,2.29-1.46,3.54c0.06,1.29,0.48,2.63,1.46,3.54C394.27,177.19,395.51,177.82,396.85,177.77L396.85,177.77z"/>
		</g>
	</g>
	<g>
		<g>
			<path d="M414.13,186.33c0.54-0.29,1.03-0.67,1.57-0.96c1.08-0.57,1.98-1.83,2.3-2.99c0.33-1.2,0.18-2.79-0.5-3.85
				c-1.52-2.35-4.37-3.11-6.84-1.79c-0.54,0.29-1.03,0.67-1.57,0.96c-1.08,0.57-1.98,1.83-2.3,2.99c-0.33,1.2-0.18,2.79,0.5,3.85
				C408.8,186.89,411.65,187.64,414.13,186.33L414.13,186.33z"/>
		</g>
	</g>
	<g>
		<g>
			<path d="M423.3,198.61c1.59-0.35,3.12-0.93,4.71-1.27c2.56-0.55,4.29-3.68,3.49-6.15c-0.87-2.69-3.41-4.09-6.15-3.49
				c-1.59,0.35-3.12,0.93-4.71,1.27c-2.56,0.55-4.29,3.68-3.49,6.15C418.02,197.82,420.55,199.21,423.3,198.61L423.3,198.61z"/>
		</g>
	</g>
	<g>
		<g>
			<path d="M423.23,213.71c0.23-0.12,0.47-0.22,0.71-0.33c-0.4,0.17-0.8,0.34-1.19,0.5c1.11-0.46,2.26-0.82,3.37-1.26
				c1.25-0.5,2.28-1.09,2.99-2.3c0.63-1.07,0.89-2.65,0.5-3.85c-0.39-1.21-1.14-2.38-2.3-2.99c-1.11-0.59-2.63-0.99-3.85-0.5
				c-1.76,0.7-3.57,1.26-5.28,2.1c-2.35,1.16-3.18,4.68-1.79,6.84C417.95,214.33,420.72,214.95,423.23,213.71L423.23,213.71z"/>
		</g>
	</g>
	<g>
		<g>
			<path d="M421.73,229.82c2.67-0.77,5.23-1.65,7.79-2.73c2.42-1.03,3.13-4.77,1.79-6.84c-1.62-2.51-4.25-2.89-6.84-1.79
				c0.75-0.32-0.54,0.19-0.69,0.24c-0.55,0.2-1.1,0.38-1.65,0.56c-1.01,0.33-2.04,0.62-3.06,0.92c-2.51,0.73-4.33,3.56-3.49,6.15
				C416.4,228.88,419.03,230.6,421.73,229.82L421.73,229.82z"/>
		</g>
	</g>
	<g>
		<g>
			<path d="M424.79,243.37c0.99-0.04,1.91-0.3,2.87-0.47c-0.44,0.06-0.89,0.12-1.33,0.18c0.11-0.02,0.23-0.03,0.34-0.03
				c1.32-0.06,2.59-0.52,3.54-1.46c0.87-0.87,1.52-2.29,1.46-3.54c-0.06-1.29-0.48-2.63-1.46-3.54c-0.95-0.88-2.2-1.52-3.54-1.46
				c-0.99,0.04-1.91,0.3-2.87,0.47c0.44-0.06,0.89-0.12,1.33-0.18c-0.11,0.02-0.23,0.03-0.34,0.03c-1.32,0.06-2.59,0.52-3.54,1.46
				c-0.87,0.87-1.52,2.29-1.46,3.54c0.06,1.29,0.48,2.63,1.46,3.54C422.21,242.78,423.46,243.43,424.79,243.37L424.79,243.37z"/>
		</g>
	</g>
	<g>
		<g>
			<path d="M430.52,255.93c0.72-0.15,1.45-0.29,2.17-0.41c1.03-0.18-1.01,0.03,0.12,0c0.36-0.01,0.72-0.04,1.09-0.05
				c2.61-0.04,5.12-2.27,5-5c-0.12-2.67-2.2-5.04-5-5c-2.03,0.03-4.05,0.41-6.04,0.82c-2.57,0.52-4.28,3.7-3.49,6.15
				C425.25,255.16,427.77,256.49,430.52,255.93L430.52,255.93z"/>
		</g>
	</g>
	<g>
		<g>
			<path d="M471.33,194.15c2.75-0.65,5.41-1.58,8.16-2.23c2.63-0.62,4.19-3.62,3.49-6.15c-0.74-2.69-3.51-4.11-6.15-3.49
				c-2.75,0.65-5.42,1.58-8.16,2.23c-2.63,0.62-4.19,3.62-3.49,6.15C465.92,193.35,468.7,194.77,471.33,194.15L471.33,194.15z"/>
		</g>
	</g>
	<g>
		<g>
			<path d="M481.07,209.44c1.88-0.32,3.77-0.64,5.65-0.96c2.59-0.44,4.27-3.76,3.49-6.15c-0.9-2.79-3.38-3.96-6.15-3.49
				c-1.88,0.32-3.77,0.64-5.65,0.96c-2.59,0.44-4.27,3.76-3.49,6.15C475.82,208.74,478.3,209.91,481.07,209.44L481.07,209.44z"/>
		</g>
	</g>
	<g>
		<g>
			<path d="M489.86,225.04c2.41-0.61,4.83-1.22,7.22-1.91c2.51-0.72,4.33-3.56,3.49-6.15c-0.83-2.56-3.46-4.26-6.15-3.49
				c-2.39,0.69-4.81,1.3-7.22,1.91c-2.54,0.64-4.31,3.62-3.49,6.15C484.56,224.17,487.14,225.73,489.86,225.04L489.86,225.04z"/>
		</g>
	</g>
	<g>
		<g>
			<path d="M507.68,235.41c1.71-0.05,3.2-0.57,4.72-1.32c1.08-0.53,1.99-1.86,2.3-2.99c0.33-1.2,0.18-2.79-0.5-3.85
				c-0.69-1.07-1.71-2.01-2.99-2.3c-1.37-0.31-2.59-0.11-3.85,0.5c-0.14,0.07-0.27,0.13-0.41,0.19c0.4-0.17,0.8-0.34,1.19-0.5
				c-0.49,0.2-0.99,0.36-1.52,0.43c0.44-0.06,0.89-0.12,1.33-0.18c-0.09,0.01-0.18,0.02-0.27,0.02c-1.31,0.04-2.6,0.53-3.54,1.46
				c-0.87,0.87-1.52,2.29-1.46,3.54c0.06,1.29,0.48,2.63,1.46,3.54C505.11,234.83,506.34,235.45,507.68,235.41L507.68,235.41z"/>
		</g>
	</g>
	<g>
		<g>
			<path d="M538.21,154.98c1.88-0.32,3.77-0.64,5.65-0.96c2.59-0.44,4.27-3.76,3.49-6.15c-0.9-2.79-3.38-3.96-6.15-3.49
				c-1.88,0.32-3.77,0.64-5.65,0.96c-2.59,0.44-4.27,3.76-3.49,6.15C532.97,154.28,535.44,155.45,538.21,154.98L538.21,154.98z"/>
		</g>
	</g>
	<g>
		<g>
			<path d="M543.55,169.95c3.11-0.95,6.23-1.88,9.42-2.55c2.64-0.56,4.18-3.66,3.49-6.15c-0.75-2.74-3.5-4.05-6.15-3.49
				c-3.19,0.67-6.3,1.6-9.42,2.55c-2.58,0.79-4.22,3.5-3.49,6.15C538.1,169.02,540.96,170.74,543.55,169.95L543.55,169.95z"/>
		</g>
	</g>
	<g>
		<g>
			<path d="M547.95,186.83c1.62-0.63,3.33-0.93,5.02-1.27c2.57-0.52,4.28-3.71,3.49-6.15c-0.88-2.73-3.4-4.04-6.15-3.49
				c-1.7,0.34-3.4,0.65-5.02,1.27c-1.25,0.48-2.29,1.1-2.99,2.3c-0.63,1.07-0.89,2.65-0.5,3.85
				C542.56,185.7,545.33,187.84,547.95,186.83L547.95,186.83z"/>
		</g>
	</g>
	<g>
		<g>
			<path d="M554.47,202.29c0.99-0.04,1.91-0.3,2.87-0.47c-0.44,0.06-0.89,0.12-1.33,0.18c0.11-0.02,0.23-0.03,0.34-0.03
				c1.32-0.06,2.59-0.52,3.54-1.46c0.87-0.87,1.52-2.29,1.46-3.54c-0.06-1.29-0.48-2.63-1.46-3.54c-0.95-0.88-2.2-1.52-3.54-1.46
				c-0.99,0.04-1.91,0.3-2.87,0.47c0.44-0.06,0.89-0.12,1.33-0.18c-0.11,0.02-0.23,0.03-0.34,0.03c-1.32,0.06-2.59,0.52-3.54,1.46
				c-0.87,0.87-1.52,2.29-1.46,3.54c0.06,1.29,0.48,2.63,1.46,3.54C551.88,201.7,553.13,202.35,554.47,202.29L554.47,202.29z"/>
		</g>
	</g>
	<g>
		<g>
			<path d="M405.71,286.5c3.8-1.29,7.6-2.59,11.3-4.14c2.49-1.04,4.27-3.31,3.49-6.15c-0.65-2.35-3.64-4.54-6.15-3.49
				c-3.71,1.54-7.5,2.85-11.3,4.14c-2.56,0.86-4.24,3.44-3.49,6.15C400.25,285.51,403.14,287.37,405.71,286.5L405.71,286.5z"/>
		</g>
	</g>
	<g>
		<g>
			<path d="M400.93,303.56c3.22-0.39,6.34-1.05,9.49-1.77c2.63-0.6,4.18-3.63,3.49-6.15c-0.74-2.71-3.51-4.09-6.15-3.49
				c-2.19,0.5-5.05,1.2-6.83,1.41c-2.59,0.31-5.13,2.07-5,5C396.04,301,398.15,303.9,400.93,303.56L400.93,303.56z"/>
		</g>
	</g>
	<g>
		<g>
			<path d="M414.19,313.57c1.86-0.61,3.79-0.98,5.65-1.59c2.48-0.81,4.35-3.5,3.49-6.15c-0.8-2.48-3.49-4.36-6.15-3.49
				c-1.86,0.61-3.79,0.98-5.65,1.59c-2.48,0.81-4.35,3.5-3.49,6.15C408.84,312.56,411.53,314.44,414.19,313.57L414.19,313.57z"/>
		</g>
	</g>
	<g>
		<g>
			<path d="M163.26,338.53c2.87-1.61,5.8-3.1,8.79-4.46c2.46-1.12,3.06-4.68,1.79-6.84c-1.48-2.53-4.37-2.92-6.84-1.79
				c-2.99,1.36-5.92,2.85-8.79,4.46c-2.36,1.32-3.14,4.54-1.79,6.84C157.8,339.11,160.89,339.86,163.26,338.53L163.26,338.53z"/>
		</g>
	</g>
	<g>
		<g>
			<path d="M158.92,361.33c5.29-1.63,10.4-3.78,15.7-5.41c6.13-1.89,3.52-11.54-2.66-9.64c-5.29,1.63-10.4,3.78-15.7,5.41
				C150.13,353.57,152.75,363.23,158.92,361.33L158.92,361.33z"/>
		</g>
	</g>
	<g>
		<g>
			<path d="M163.57,382.8c4.59-2.06,9.05-4.36,13.88-5.86c6.12-1.91,3.51-11.57-2.66-9.64c-5.64,1.76-10.89,4.46-16.27,6.87
				c-2.46,1.11-3.05,4.69-1.79,6.84C158.21,383.54,161.1,383.91,163.57,382.8L163.57,382.8z"/>
		</g>
	</g>
	<g>
		<g>
			<path d="M168.91,404.14c5.3-2.9,10.95-4.74,16.7-6.5c6.14-1.88,3.52-11.53-2.66-9.64c-6.56,2.01-13.05,4.21-19.09,7.51
				C158.21,398.59,163.25,407.23,168.91,404.14L168.91,404.14z"/>
		</g>
	</g>
	<g>
		<g>
			<path d="M176.82,425.66c4.18-1.35,8.17-3.17,12.25-4.78c2.51-0.99,4.26-3.35,3.49-6.15c-0.66-2.39-3.62-4.49-6.15-3.49
				c-4.08,1.61-8.07,3.43-12.25,4.78C168.06,417.98,170.67,427.64,176.82,425.66L176.82,425.66z"/>
		</g>
	</g>
	<g>
		<g>
			<path d="M184.35,446.67c7.33-2.39,14.52-5.1,21.6-8.15c5.9-2.53,0.81-11.15-5.05-8.63c-6.28,2.7-12.72,5.02-19.21,7.14
				C175.6,439.02,178.21,448.68,184.35,446.67L184.35,446.67z"/>
		</g>
	</g>
	<g>
		<g>
			<path d="M193.77,462.92c3.9-0.73,7.57-2.22,11.3-3.5c2.55-0.88,4.24-3.43,3.49-6.15c-0.68-2.48-3.59-4.37-6.15-3.49
				c-3.74,1.28-7.4,2.78-11.3,3.5c-2.66,0.5-4.16,3.7-3.49,6.15C188.39,462.21,191.11,463.41,193.77,462.92L193.77,462.92z"/>
		</g>
	</g>
	<g>
		<g>
			<path d="M206.97,484.24c2.76-3.43,6.68-5.06,10.67-6.68c2.5-1.01,4.27-3.33,3.49-6.15c-0.65-2.37-3.63-4.51-6.15-3.49
				c-5.51,2.23-11.24,4.47-15.08,9.25c-1.69,2.1-2.05,5.02,0,7.07C201.65,485.99,205.27,486.35,206.97,484.24L206.97,484.24z"/>
		</g>
	</g>
	<g>
		<g>
			<path d="M222.6,499.67c3.69-2.46,7.61-4.48,11.62-6.37c2.44-1.15,3.07-4.66,1.79-6.84c-1.46-2.5-4.39-2.95-6.84-1.79
				c-4.01,1.89-7.93,3.91-11.62,6.37c-2.25,1.49-3.21,4.41-1.79,6.84C217.06,500.11,220.34,501.17,222.6,499.67L222.6,499.67z"/>
		</g>
	</g>
	<g>
		<g>
			<path d="M235.16,512.09c1.76-0.88,3.57-1.66,5.34-2.55c2.34-1.18,3.19-4.67,1.79-6.84c-1.54-2.4-4.34-3.05-6.84-1.79
				c-1.76,0.88-3.57,1.66-5.34,2.55c-2.34,1.18-3.19,4.67-1.79,6.84C229.86,512.69,232.65,513.35,235.16,512.09L235.16,512.09z"/>
		</g>
	</g>
	<g>
		<g>
			<path d="M258.77,401.45c1.36-0.34,2.71-0.67,4.08-0.96c2.57-0.53,4.29-3.7,3.49-6.15c-0.88-2.72-3.4-4.06-6.15-3.49
				c-1.37,0.28-2.73,0.61-4.08,0.96c-2.54,0.64-4.31,3.62-3.49,6.15C253.47,400.58,256.05,402.14,258.77,401.45L258.77,401.45z"/>
		</g>
	</g>
	<g>
		<g>
			<path d="M267.8,414.05c0.99-0.04,1.91-0.3,2.87-0.47c-0.44,0.06-0.89,0.12-1.33,0.18c0.11-0.02,0.23-0.03,0.34-0.03
				c1.32-0.06,2.59-0.52,3.54-1.46c0.87-0.87,1.52-2.29,1.46-3.54c-0.06-1.29-0.48-2.63-1.46-3.54c-0.95-0.88-2.2-1.52-3.54-1.46
				c-0.99,0.04-1.91,0.3-2.87,0.47c0.44-0.06,0.89-0.12,1.33-0.18c-0.11,0.02-0.23,0.03-0.34,0.03c-1.32,0.06-2.59,0.52-3.54,1.46
				c-0.87,0.87-1.52,2.29-1.46,3.54c0.06,1.29,0.48,2.63,1.46,3.54C265.22,413.46,266.47,414.11,267.8,414.05L267.8,414.05z"/>
		</g>
	</g>
	<g>
		<g>
			<path d="M275.41,427.89c1.04-0.34,2.1-0.61,3.14-0.96c1.23-0.41,2.32-1.16,2.99-2.3c0.63-1.07,0.89-2.65,0.5-3.85
				c-0.39-1.21-1.14-2.38-2.3-2.99c-1.16-0.61-2.57-0.93-3.85-0.5c-1.04,0.34-2.1,0.61-3.14,0.96c-1.23,0.41-2.32,1.16-2.99,2.3
				c-0.63,1.07-0.89,2.65-0.5,3.85c0.39,1.21,1.14,2.38,2.3,2.99C272.71,427.99,274.13,428.31,275.41,427.89L275.41,427.89z"/>
		</g>
	</g>
	<g>
		<g>
			<path d="M287.59,440.12c0.94-0.48,1.84-1.05,2.81-1.47c-0.4,0.17-0.8,0.34-1.19,0.5c0.11-0.05,0.22-0.09,0.33-0.13
				c1.24-0.44,2.3-1.13,2.99-2.3c0.63-1.07,0.89-2.65,0.5-3.85c-0.39-1.21-1.14-2.38-2.3-2.99c-1.14-0.6-2.59-0.95-3.85-0.5
				c-1.54,0.55-2.89,1.35-4.33,2.1c-2.33,1.2-3.2,4.66-1.79,6.84C282.28,440.7,285.1,441.4,287.59,440.12L287.59,440.12z"/>
		</g>
	</g>
	<g>
		<g>
			<path d="M320.56,395.54c2.9-1.96,5.81-3.9,8.79-5.73c2.3-1.41,3.18-4.48,1.79-6.84c-1.35-2.3-4.53-3.21-6.84-1.79
				c-2.99,1.83-5.89,3.77-8.79,5.73c-2.23,1.51-3.22,4.4-1.79,6.84C315.02,395.96,318.31,397.06,320.56,395.54L320.56,395.54z"/>
		</g>
	</g>
	<g>
		<g>
			<path d="M321.56,413.24c2.18-0.61,4.41-0.98,6.59-1.59c2.52-0.7,4.33-3.57,3.49-6.15c-0.83-2.57-3.45-4.25-6.15-3.49
				c-2.18,0.61-4.41,0.98-6.59,1.59c-2.52,0.7-4.33,3.57-3.49,6.15C316.25,412.31,318.87,413.99,321.56,413.24L321.56,413.24z"/>
		</g>
	</g>
	<g>
		<g>
			<path d="M325.65,434.57c1.86-0.63,3.72-1.24,5.65-1.59c2.58-0.47,4.27-3.74,3.49-6.15c-0.9-2.77-3.39-3.99-6.15-3.49
				c-1.93,0.35-3.79,0.96-5.65,1.59c-2.47,0.84-4.36,3.48-3.49,6.15C320.29,433.54,322.99,435.47,325.65,434.57L325.65,434.57z"/>
		</g>
	</g>
	<g>
		<g>
			<path d="M334.38,454.13c1.03-0.6,2.07-1.2,3.12-1.76c0.5-0.26,1-0.52,1.51-0.77c0.29-0.14,0.59-0.28,0.89-0.41
				c-0.44,0.18-0.37,0.16,0.19-0.06c2.43-0.95,4.38-3.4,3.49-6.15c-0.76-2.36-3.54-4.51-6.15-3.49c-2.83,1.11-5.48,2.49-8.1,4.01
				c-2.26,1.31-3.25,4.58-1.79,6.84C329.01,454.62,331.95,455.53,334.38,454.13L334.38,454.13z"/>
		</g>
	</g>
	<g>
		<g>
			<path d="M339.7,465.96c6.43,0,6.45-10,0-10C333.27,455.96,333.26,465.96,339.7,465.96L339.7,465.96z"/>
		</g>
	</g>
	<g>
		<g>
			<path d="M373.69,364.52c1.23-0.43,2.42-0.94,3.62-1.46c0.42-0.18,0.83-0.37,1.25-0.55c0.26-0.11,1.82-0.77,0.47-0.22
				c1.26-0.52,2.27-1.08,2.99-2.3c0.63-1.07,0.89-2.65,0.5-3.85c-0.75-2.32-3.56-4.56-6.15-3.49c-1.14,0.47-2.26,0.96-3.39,1.46
				c-0.23,0.1-1.54,0.76-0.45,0.2c-0.47,0.24-1.01,0.39-1.5,0.57c-2.46,0.86-4.36,3.46-3.49,6.15
				C368.32,363.46,371.04,365.44,373.69,364.52L373.69,364.52z"/>
		</g>
	</g>
	<g>
		<g>
			<path d="M374.63,386.17c4.02-1.21,8.16-1.93,12.25-2.87c6.27-1.44,3.62-11.08-2.66-9.64c-4.09,0.94-8.22,1.65-12.25,2.87
				C365.82,378.38,368.44,388.03,374.63,386.17L374.63,386.17z"/>
		</g>
	</g>
	<g>
		<g>
			<path d="M377.14,406.23c2.58-0.97,5.18-1.86,7.85-2.55c2.53-0.66,4.32-3.61,3.49-6.15c-0.84-2.61-3.44-4.2-6.15-3.49
				c-2.67,0.69-5.27,1.58-7.85,2.55c-2.44,0.92-4.38,3.42-3.49,6.15C371.76,405.12,374.52,407.22,377.14,406.23L377.14,406.23z"/>
		</g>
	</g>
	<g>
		<g>
			<path d="M384.68,421.52c2.41-0.49,5.41-1.17,7.46-1.41c2.68-0.32,5-2.07,5-5c0-2.45-2.3-5.33-5-5
				c-3.41,0.41-6.76,1.08-10.12,1.77c-2.65,0.54-4.17,3.67-3.49,6.15C379.28,420.78,382.02,422.06,384.68,421.52L384.68,421.52z"/>
		</g>
	</g>
	<g>
		<g>
			<path d="M404.14,437.44c2.03-0.37,3.99-1.01,5.97-1.59c2.51-0.73,4.33-3.55,3.49-6.15c-0.82-2.54-3.46-4.28-6.15-3.49
				c-1.98,0.58-3.94,1.23-5.97,1.59c-2.58,0.46-4.27,3.74-3.49,6.15C398.89,436.72,401.38,437.94,404.14,437.44L404.14,437.44z"/>
		</g>
	</g>
	<g>
		<g>
			<path d="M387.44,349.36c0.04-0.02,0.09-0.04,0.13-0.06c-0.4,0.17-0.8,0.34-1.19,0.5c0.37-0.14,0.74-0.21,1.13-0.29
				c0.76-0.16,1.42-0.46,2.14-0.79c1.07-0.49,2-1.89,2.3-2.99c0.33-1.2,0.18-2.79-0.5-3.85c-0.69-1.07-1.71-2.01-2.99-2.3
				c-0.44-0.06-0.89-0.12-1.33-0.18c-0.9,0-1.74,0.23-2.52,0.68c-0.04,0.02-0.09,0.04-0.13,0.06c0.4-0.17,0.8-0.34,1.19-0.5
				c-0.37,0.14-0.74,0.21-1.13,0.29c-0.76,0.16-1.42,0.46-2.14,0.79c-1.07,0.49-2,1.89-2.3,2.99c-0.33,1.2-0.18,2.79,0.5,3.85
				c0.69,1.07,1.71,2.01,2.99,2.3c0.44,0.06,0.89,0.12,1.33,0.18C385.82,350.04,386.66,349.81,387.44,349.36L387.44,349.36z"/>
		</g>
	</g>
	<g>
		<g>
			<path d="M483.27,340.63c3.06-0.65,6.05-1.58,9.11-2.23c2.64-0.56,4.18-3.66,3.49-6.15c-0.75-2.74-3.5-4.05-6.15-3.49
				c-3.06,0.65-6.05,1.58-9.11,2.23c-2.64,0.56-4.18,3.66-3.49,6.15C477.87,339.88,480.61,341.19,483.27,340.63L483.27,340.63z"/>
		</g>
	</g>
	<g>
		<g>
			<path d="M477.93,360.06c2.76-0.63,5.48-1.34,8.16-2.23c2.56-0.85,4.23-3.45,3.49-6.15c-0.69-2.5-3.58-4.35-6.15-3.49
				c-2.68,0.89-5.41,1.6-8.16,2.23c-2.63,0.6-4.18,3.63-3.49,6.15C472.52,359.27,475.29,360.66,477.93,360.06L477.93,360.06z"/>
		</g>
	</g>
	<g>
		<g>
			<path d="M479.18,382.35c4.13-0.99,8.19-2.24,12.24-3.5c6.12-1.91,3.51-11.57-2.66-9.64c-4.06,1.26-8.11,2.51-12.24,3.5
				C470.27,374.2,472.92,383.85,479.18,382.35L479.18,382.35z"/>
		</g>
	</g>
	<g>
		<g>
			<path d="M487.98,401.77c3.94-1.61,8.04-2.55,12.25-3.19c2.67-0.4,4.15-3.77,3.49-6.15c-0.79-2.86-3.47-3.9-6.15-3.49
				c-4.2,0.63-8.3,1.57-12.25,3.19c-2.5,1.02-4.27,3.32-3.49,6.15C482.47,400.65,485.46,402.8,487.98,401.77L487.98,401.77z"/>
		</g>
	</g>
	<g>
		<g>
			<path d="M505.87,414.19c2.57-0.53,5.22-1.13,7.78-1.41c2.68-0.29,5-2.09,5-5c0-2.48-2.3-5.29-5-5
				c-3.52,0.38-6.97,1.06-10.43,1.77c-2.65,0.54-4.17,3.67-3.49,6.15C500.48,413.45,503.22,414.73,505.87,414.19L505.87,414.19z"/>
		</g>
	</g>
	<g>
		<g>
			<path d="M523.7,329.66c6.43,0,6.45-10,0-10C517.26,319.66,517.25,329.66,523.7,329.66L523.7,329.66z"/>
		</g>
	</g>
	<g>
		<g>
			<path d="M531.23,342.72c6.43,0,6.45-10,0-10C524.8,332.72,524.79,342.72,531.23,342.72L531.23,342.72z"/>
		</g>
	</g>
	<g>
		<g>
			<path d="M535.39,354.64c0.36-0.09,0.73-0.16,1.09-0.21c-0.44,0.06-0.89,0.12-1.33,0.18c0.68-0.09,1.36-0.1,2.04-0.1
				c2.62,0,5.12-2.3,5-5c-0.12-2.71-2.2-5-5-5c-1.5,0-3.01,0.14-4.47,0.5c-2.54,0.61-4.31,3.64-3.49,6.15
				C530.09,353.8,532.66,355.3,535.39,354.64L535.39,354.64z"/>
		</g>
	</g>
	<g>
		<g>
			<path d="M535.31,372.65c6.43,0,6.45-10,0-10C528.88,362.65,528.87,372.65,535.31,372.65L535.31,372.65z"/>
		</g>
	</g>
	<g>
		<g>
			<path d="M555.41,316.56c0.18-0.09,0.37-0.17,0.56-0.25c-0.4,0.17-0.8,0.34-1.19,0.5c0.95-0.4,1.91-0.75,2.83-1.2
				c1.08-0.53,1.99-1.86,2.3-2.99c0.33-1.2,0.18-2.79-0.5-3.85c-0.69-1.07-1.71-2.01-2.99-2.3c-1.37-0.31-2.59-0.11-3.85,0.5
				c-0.18,0.09-0.37,0.17-0.56,0.25c0.4-0.17,0.8-0.34,1.19-0.5c-0.95,0.4-1.91,0.75-2.83,1.2c-1.08,0.53-1.99,1.86-2.3,2.99
				c-0.33,1.2-0.18,2.79,0.5,3.85c0.69,1.07,1.71,2.01,2.99,2.3C552.93,317.38,554.16,317.18,555.41,316.56L555.41,316.56z"/>
		</g>
	</g>
	<g>
		<g>
			<path d="M560.11,327.12c6.43,0,6.45-10,0-10C553.68,317.12,553.67,327.12,560.11,327.12L560.11,327.12z"/>
		</g>
	</g>
	<g>
		<g>
			<path d="M566.71,331.89c6.43,0,6.45-10,0-10C560.27,321.89,560.26,331.89,566.71,331.89L566.71,331.89z"/>
		</g>
	</g>
	<g>
		<g>
			<path d="M585.86,347.5c1.39-0.03,2.56-0.37,3.84-0.82c1.24-0.43,2.31-1.14,2.99-2.3c0.63-1.07,0.89-2.65,0.5-3.85
				c-0.39-1.21-1.14-2.38-2.3-2.99c-1.15-0.61-2.58-0.94-3.85-0.5c-0.65,0.23-1.29,0.49-1.98,0.6c0.44-0.06,0.89-0.12,1.33-0.18
				c-0.18,0.02-0.35,0.03-0.53,0.04c-1.3,0.03-2.61,0.54-3.54,1.46c-0.87,0.87-1.52,2.29-1.46,3.54c0.06,1.29,0.48,2.63,1.46,3.54
				C583.29,346.92,584.52,347.53,585.86,347.5L585.86,347.5z"/>
		</g>
	</g>
	<g>
		<g>
			<path d="M588.37,359.6c1.32-0.04,2.33-0.4,3.53-0.81c1.24-0.43,2.31-1.14,2.99-2.3c0.63-1.07,0.89-2.65,0.5-3.85
				c-0.39-1.21-1.14-2.38-2.3-2.99c-1.15-0.61-2.58-0.94-3.85-0.5c-0.64,0.22-1.27,0.52-1.95,0.62c0.44-0.06,0.89-0.12,1.33-0.18
				c-0.08,0.01-0.17,0.02-0.25,0.02c-1.31,0.04-2.6,0.53-3.54,1.46c-0.87,0.87-1.52,2.29-1.46,3.54c0.06,1.29,0.48,2.63,1.46,3.54
				C585.79,359.01,587.03,359.64,588.37,359.6L588.37,359.6z"/>
		</g>
	</g>
	<g>
		<g>
			<path d="M588.68,375.84c6.43,0,6.45-10,0-10C582.25,365.84,582.24,375.84,588.68,375.84L588.68,375.84z"/>
		</g>
	</g>
	<g>
		<g>
			<path d="M594.66,387.58c0.1-0.05,0.21-0.1,0.32-0.15c-0.4,0.17-0.8,0.34-1.19,0.5c0.82-0.33,1.65-0.61,2.45-0.99
				c1.08-0.52,1.99-1.87,2.3-2.99c0.33-1.2,0.18-2.79-0.5-3.85c-0.69-1.07-1.71-2.01-2.99-2.3c-0.44-0.06-0.89-0.12-1.33-0.18
				c-0.9,0-1.74,0.23-2.52,0.68c-0.1,0.05-0.21,0.1-0.32,0.15c0.4-0.17,0.8-0.34,1.19-0.5c-0.82,0.33-1.65,0.61-2.45,0.99
				c-1.08,0.52-1.99,1.87-2.3,2.99c-0.33,1.2-0.18,2.79,0.5,3.85c0.69,1.07,1.71,2.01,2.99,2.3c0.44,0.06,0.89,0.12,1.33,0.18
				C593.04,388.26,593.88,388.03,594.66,387.58L594.66,387.58z"/>
		</g>
	</g>
	<g>
		<g>
			<path d="M596.85,399.09c6.43,0,6.45-10,0-10C590.41,389.09,590.4,399.09,596.85,399.09L596.85,399.09z"/>
		</g>
	</g>
	<g>
		<g>
			<path d="M638.37,337.45c0.82-0.27,1.69-0.37,2.51-0.64c1.23-0.4,2.32-1.16,2.99-2.3c0.63-1.07,0.89-2.65,0.5-3.85
				c-0.39-1.21-1.14-2.38-2.3-2.99c-1.16-0.61-2.57-0.92-3.85-0.5c-0.82,0.27-1.69,0.37-2.51,0.64c-1.23,0.4-2.32,1.16-2.99,2.3
				c-0.63,1.07-0.89,2.65-0.5,3.85c0.39,1.21,1.14,2.38,2.3,2.99C635.68,337.56,637.08,337.86,638.37,337.45L638.37,337.45z"/>
		</g>
	</g>
	<g>
		<g>
			<path d="M642.07,358.6c2.36-1.18,3.97-1.76,6.65-2.68c2.47-0.84,4.36-3.47,3.49-6.15c-0.79-2.45-3.5-4.4-6.15-3.49
				c-3.08,1.05-6.13,2.23-9.04,3.69c-2.35,1.17-3.19,4.68-1.79,6.84C636.78,359.2,639.56,359.85,642.07,358.6L642.07,358.6z"/>
		</g>
	</g>
	<g>
		<g>
			<path d="M651.49,372.61c0.06-0.03,0.11-0.05,0.17-0.08c-0.4,0.17-0.8,0.34-1.19,0.5c0.31-0.12,0.62-0.2,0.94-0.28
				c0.68-0.18,1.33-0.48,1.97-0.78c1.07-0.5,2-1.89,2.3-2.99c0.33-1.2,0.18-2.79-0.5-3.85c-0.69-1.07-1.71-2.01-2.99-2.3
				c-0.44-0.06-0.89-0.12-1.33-0.18c-0.9,0-1.74,0.23-2.52,0.68c-0.06,0.03-0.11,0.05-0.17,0.08c0.4-0.17,0.8-0.34,1.19-0.5
				c-0.31,0.12-0.62,0.2-0.94,0.28c-0.68,0.18-1.33,0.48-1.96,0.78c-1.07,0.5-1.99,1.89-2.3,2.99c-0.33,1.2-0.18,2.79,0.5,3.85
				c0.69,1.07,1.71,2.01,2.99,2.3c0.44,0.06,0.89,0.12,1.33,0.18C649.87,373.29,650.71,373.06,651.49,372.61L651.49,372.61z"/>
		</g>
	</g>
	<g>
		<g>
			<path d="M659.72,384.26c2.2-0.64,4.4-1.27,6.59-1.91c2.51-0.73,4.33-3.56,3.49-6.15c-0.83-2.55-3.46-4.27-6.15-3.49
				c-2.2,0.64-4.4,1.27-6.59,1.91c-2.51,0.73-4.33,3.56-3.49,6.15C654.39,383.32,657.03,385.04,659.72,384.26L659.72,384.26z"/>
		</g>
	</g>
	<g>
		<g>
			<path d="M680.44,306.24c0.85-0.29,1.66-0.66,2.51-0.96c1.24-0.43,2.31-1.14,2.99-2.3c0.63-1.07,0.89-2.65,0.5-3.85
				c-0.39-1.21-1.14-2.38-2.3-2.99c-1.15-0.61-2.58-0.94-3.85-0.5c-0.85,0.29-1.66,0.66-2.51,0.96c-1.24,0.43-2.31,1.14-2.99,2.3
				c-0.63,1.07-0.89,2.65-0.5,3.85c0.39,1.21,1.14,2.38,2.3,2.99C677.73,306.34,679.17,306.68,680.44,306.24L680.44,306.24z"/>
		</g>
	</g>
	<g>
		<g>
			<path d="M680.05,322.34c6.43,0,6.45-10,0-10C673.62,312.34,673.61,322.34,680.05,322.34L680.05,322.34z"/>
		</g>
	</g>
	<g>
		<g>
			<path d="M688.6,363.24c1.06-0.27,2.1-0.6,3.14-0.96c1.24-0.42,2.32-1.15,2.99-2.3c0.63-1.07,0.89-2.65,0.5-3.85
				c-0.39-1.21-1.14-2.38-2.3-2.99c-1.15-0.61-2.58-0.94-3.85-0.5c-1.04,0.35-2.08,0.68-3.14,0.96c-2.53,0.65-4.31,3.61-3.49,6.15
				C683.3,362.36,685.89,363.94,688.6,363.24L688.6,363.24z"/>
		</g>
	</g>
	<g>
		<g>
			<path d="M695.75,373.61c6.43,0,6.45-10,0-10C689.32,363.61,689.31,373.61,695.75,373.61L695.75,373.61z"/>
		</g>
	</g>
	<g>
		<g>
			<path d="M310.81,507.67c6.43,0,6.45-10,0-10C304.38,497.67,304.36,507.67,310.81,507.67L310.81,507.67z"/>
		</g>
	</g>
	<g>
		<g>
			<path d="M293.93,514.5c6.84-2.63,13.72-5.14,20.72-7.32c6.12-1.91,3.51-11.57-2.66-9.64c-7,2.19-13.88,4.69-20.72,7.32
				C285.33,507.15,287.91,516.82,293.93,514.5L293.93,514.5z"/>
		</g>
	</g>
	<g>
		<g>
			<path d="M301.09,529.6c6.2-2.62,12.74-4.39,19.21-6.18c6.19-1.71,3.56-11.37-2.66-9.64c-7.35,2.04-14.57,4.21-21.6,7.19
				c-2.51,1.06-3.01,4.71-1.79,6.84C295.72,530.4,298.62,530.65,301.09,529.6L301.09,529.6z"/>
		</g>
	</g>
	<g>
		<g>
			<path d="M321.87,539.34c7.69-3.08,15.49-5.7,23.55-7.64c6.25-1.51,3.61-11.15-2.66-9.64c-8.06,1.94-15.86,4.56-23.55,7.64
				C313.32,532.06,315.89,541.74,321.87,539.34L321.87,539.34z"/>
		</g>
	</g>
	<g>
		<g>
			<path d="M346.3,548.39c6.76-2.92,13.81-5.11,20.78-7.46c6.07-2.04,3.47-11.7-2.66-9.64c-7.81,2.63-15.6,5.2-23.17,8.47
				C335.36,542.3,340.45,550.92,346.3,548.39L346.3,548.39z"/>
		</g>
	</g>
	<g>
		<g>
			<path d="M428.24,367.88c1.71-0.05,3.2-0.57,4.72-1.32c1.08-0.53,1.99-1.86,2.3-2.99c0.33-1.2,0.18-2.79-0.5-3.85
				c-0.69-1.07-1.71-2.01-2.99-2.3c-1.37-0.31-2.59-0.11-3.85,0.5c-0.14,0.07-0.27,0.13-0.41,0.19c0.4-0.17,0.8-0.34,1.19-0.5
				c-0.49,0.2-0.99,0.36-1.52,0.43c0.44-0.06,0.89-0.12,1.33-0.18c-0.09,0.01-0.18,0.02-0.27,0.02c-1.31,0.04-2.6,0.53-3.54,1.46
				c-0.87,0.87-1.52,2.29-1.46,3.54c0.06,1.29,0.48,2.63,1.46,3.54C425.66,367.29,426.9,367.92,428.24,367.88L428.24,367.88z"/>
		</g>
	</g>
	<g>
		<g>
			<path d="M439.86,377.43c0.99-0.04,1.91-0.3,2.87-0.47c-0.44,0.06-0.89,0.12-1.33,0.18c0.11-0.02,0.23-0.03,0.34-0.03
				c1.32-0.06,2.59-0.52,3.54-1.46c0.87-0.87,1.52-2.29,1.46-3.54c-0.06-1.29-0.48-2.63-1.46-3.54c-0.95-0.88-2.2-1.52-3.54-1.46
				c-0.99,0.04-1.91,0.3-2.87,0.47c0.44-0.06,0.89-0.12,1.33-0.18c-0.11,0.02-0.23,0.03-0.34,0.03c-1.32,0.06-2.59,0.52-3.54,1.46
				c-0.87,0.87-1.52,2.29-1.46,3.54c0.06,1.29,0.48,2.63,1.46,3.54C437.28,376.84,438.52,377.49,439.86,377.43L439.86,377.43z"/>
		</g>
	</g>
	<g>
		<g>
			<path d="M431.69,365.97c1.53,0,2.73-0.34,4.09-1c1.08-0.52,1.99-1.87,2.3-2.99c0.33-1.2,0.18-2.79-0.5-3.85
				c-0.69-1.07-1.71-2.01-2.99-2.3c-0.44-0.06-0.89-0.12-1.33-0.18c-0.9,0-1.74,0.23-2.52,0.68c-0.1,0.05-0.21,0.1-0.32,0.14
				c0.4-0.17,0.8-0.34,1.19-0.5c-0.18,0.06-0.35,0.11-0.53,0.14c0.44-0.06,0.89-0.12,1.33-0.18c-0.24,0.03-0.48,0.03-0.72,0.03
				c-1.28,0-2.63,0.56-3.54,1.46c-0.87,0.87-1.52,2.29-1.46,3.54c0.06,1.29,0.48,2.63,1.46,3.54
				C429.14,365.4,430.34,365.97,431.69,365.97L431.69,365.97z"/>
		</g>
	</g>
	<g>
		<g>
			<path d="M435.22,398.27c0.85-0.29,1.66-0.66,2.51-0.96c1.24-0.43,2.31-1.14,2.99-2.3c0.63-1.07,0.89-2.65,0.5-3.85
				c-0.39-1.21-1.14-2.38-2.3-2.99c-1.15-0.61-2.58-0.94-3.85-0.5c-0.85,0.29-1.66,0.66-2.51,0.96c-1.24,0.43-2.31,1.14-2.99,2.3
				c-0.63,1.07-0.89,2.65-0.5,3.85c0.39,1.21,1.14,2.38,2.3,2.99C432.51,398.37,433.95,398.71,435.22,398.27L435.22,398.27z"/>
		</g>
	</g>
	<g>
		<g>
			<path d="M297.01,243.32c0.44-0.23,0.89-0.44,1.35-0.64c-0.4,0.17-0.8,0.34-1.19,0.5c0.28-0.11,0.56-0.22,0.85-0.32
				c1.24-0.43,2.31-1.14,2.99-2.3c0.63-1.07,0.89-2.65,0.5-3.85c-0.39-1.21-1.14-2.38-2.3-2.99c-1.15-0.61-2.58-0.94-3.85-0.5
				c-1.16,0.4-2.29,0.9-3.39,1.46c-1.08,0.55-1.98,1.85-2.3,2.99c-0.33,1.2-0.18,2.79,0.5,3.85c0.69,1.07,1.71,2.01,2.99,2.3
				C294.51,244.13,295.76,243.95,297.01,243.32L297.01,243.32z"/>
		</g>
	</g>
	<g>
		<g>
			<path d="M293.54,228.08c6.43,0,6.45-10,0-10C287.11,218.08,287.1,228.08,293.54,228.08L293.54,228.08z"/>
		</g>
	</g>
	<g>
		<g>
			<path d="M295.51,219.93c0.06-0.06,0.13-0.12,0.2-0.17c-0.34,0.26-0.67,0.52-1.01,0.78c0.69-0.52,1.43-0.97,2.07-1.56
				c0.92-0.86,1.46-2.3,1.46-3.54c0-1.23-0.54-2.69-1.46-3.54c-0.95-0.87-2.2-1.52-3.54-1.46c-1.35,0.06-2.54,0.53-3.54,1.46
				c-0.06,0.06-0.13,0.12-0.2,0.17c0.34-0.26,0.67-0.52,1.01-0.78c-0.69,0.52-1.43,0.97-2.07,1.56c-0.92,0.86-1.46,2.3-1.46,3.54
				c0,1.23,0.54,2.69,1.46,3.54c0.95,0.87,2.2,1.52,3.54,1.46C293.32,221.33,294.51,220.86,295.51,219.93L295.51,219.93z"/>
		</g>
	</g>
	<g>
		<g>
			<path d="M386.81,548.08c48.69-26.84,100.9-46.46,153.93-62.83c52.5-16.2,105.98-30.16,159.5-42.59
				c33.38-7.75,67.1-13.9,100.78-20.19c6.32-1.18,3.64-10.82-2.66-9.64c-30.18,5.64-60.38,11.16-90.36,17.82
				c-27.62,6.14-55.04,13.37-82.43,20.46c-54,13.99-107.83,29.22-159.86,49.49c-28.75,11.2-56.92,23.93-83.95,38.83
				C376.13,542.55,381.17,551.19,386.81,548.08L386.81,548.08z"/>
		</g>
	</g>
	<g>
		<g>
			<path d="M663.67,80.13c6.45,0,6.45-10,0-10S657.22,80.13,663.67,80.13L663.67,80.13z"/>
		</g>
	</g>
</g>
<g id="Text">
</g>
</svg>
